<?xml version="1.0" encoding="UTF-8"?>
<svg id="Layer_1" data-name="Layer 1" xmlns="http://www.w3.org/2000/svg" xmlns:xlink="http://www.w3.org/1999/xlink" viewBox="0 0 2355.99 1605.92">
  <defs>
    <style>
      .cls-1 {
        fill: #383799;
      }

      .cls-2 {
        fill: url(#linear-gradient-2);
      }

      .cls-3 {
        fill: #4d9bdb;
      }

      .cls-4 {
        fill: #27278b;
      }

      .cls-5 {
        fill: #1f8c79;
      }

      .cls-6 {
        fill: #5dae83;
      }

      .cls-7 {
        fill: #025570;
      }

      .cls-8 {
        fill: url(#linear-gradient-6);
      }

      .cls-9 {
        fill: #c04344;
      }

      .cls-10 {
        fill: #9195ee;
      }

      .cls-11 {
        fill: #fa9e41;
      }

      .cls-12 {
        fill: #e6e7f5;
      }

      .cls-13 {
        fill: #bfc4df;
      }

      .cls-14 {
        fill: url(#linear-gradient-5);
      }

      .cls-15 {
        fill: #201e73;
      }

      .cls-16 {
        fill: #5577b0;
      }

      .cls-17 {
        fill: url(#linear-gradient-7);
      }

      .cls-18 {
        fill: #fad27a;
      }

      .cls-19 {
        fill: url(#linear-gradient-3);
      }

      .cls-20 {
        fill: #666de3;
      }

      .cls-21 {
        fill: url(#linear-gradient);
      }

      .cls-22 {
        fill: #b2b4f7;
      }

      .cls-23 {
        fill: #0e6b71;
      }

      .cls-24 {
        fill: #6fc0d4;
      }

      .cls-25 {
        fill: url(#linear-gradient-4);
      }

      .cls-26 {
        fill: #fdbb52;
      }

      .cls-27 {
        fill: #e25996;
      }

      .cls-28 {
        fill: #004675;
      }

      .cls-29 {
        fill: #fefefe;
      }
    </style>
    <linearGradient id="linear-gradient" x1="-4507.78" y1="1637.52" x2="-4466.87" y2="1883.59" gradientTransform="translate(6477 2332.96) scale(1 -1)" gradientUnits="userSpaceOnUse">
      <stop offset="0" stop-color="#292a95"/>
      <stop offset="1" stop-color="#5455c9"/>
    </linearGradient>
    <linearGradient id="linear-gradient-2" x1="-4662.59" y1="2181.97" x2="-4652.54" y2="2337.56" gradientTransform="translate(6477 2332.96) scale(1 -1)" gradientUnits="userSpaceOnUse">
      <stop offset="0" stop-color="#489ad1"/>
      <stop offset="1" stop-color="#6cd3db"/>
    </linearGradient>
    <linearGradient id="linear-gradient-3" x1="-6227.55" y1="1147.02" x2="-6318.99" y2="1126.41" gradientTransform="translate(6477 2332.96) scale(1 -1)" gradientUnits="userSpaceOnUse">
      <stop offset="0" stop-color="#0e7774"/>
      <stop offset="1" stop-color="#3a9e7c"/>
    </linearGradient>
    <linearGradient id="linear-gradient-4" x1="-6229.65" y1="1097.71" x2="-6399.02" y2="1116.55" gradientTransform="translate(6477 2332.96) scale(1 -1)" gradientUnits="userSpaceOnUse">
      <stop offset="0" stop-color="#148276"/>
      <stop offset="1" stop-color="#57b081"/>
    </linearGradient>
    <linearGradient id="linear-gradient-5" x1="-6079.05" y1="1665.83" x2="-6169.85" y2="1851.95" gradientTransform="translate(6477 2332.96) scale(1 -1)" gradientUnits="userSpaceOnUse">
      <stop offset="0" stop-color="#ca5352"/>
      <stop offset="1" stop-color="#fa8787"/>
    </linearGradient>
    <linearGradient id="linear-gradient-6" x1="-5706.53" y1="1997.07" x2="-5760.68" y2="2229.27" gradientTransform="translate(6477 2332.96) scale(1 -1)" gradientUnits="userSpaceOnUse">
      <stop offset="0" stop-color="#27248e"/>
      <stop offset="1" stop-color="#6262d0"/>
    </linearGradient>
    <linearGradient id="linear-gradient-7" x1="-6122.41" y1="1370.89" x2="-6222.04" y2="1348.56" gradientTransform="translate(6477 2332.96) scale(1 -1)" gradientUnits="userSpaceOnUse">
      <stop offset="0" stop-color="#107a79"/>
      <stop offset="1" stop-color="#3b9f7e"/>
    </linearGradient>
  </defs>
  <path class="cls-4" d="M1772.03,286.62c9.81,5.63,2.3,12.81,7.23,19.97,3.6,5.23,12.24,3.87,17.77,5.06,3.4,.74,4.31,1.54,6.06,4.46l-.71,2.64c-5.05,3.08-10.83,1.73-16.37,3.14-10.98,2.79-5.48,18.08-10.4,26.38-1.8-.66-3.23-1.26-4.72-2.53-4.43-3.77-3.81-16.06-4.11-21.68-7.5-.87-16.57-.6-21.64-6.87l1.44-2.63c6.4-4.13,13.69-4.77,21-6.51,.77-6.66,.83-15.73,4.45-21.41Z"/>
  <path class="cls-29" d="M1770.17,312.02c2.62,.32,4.63,1.25,6.99,2.33l.92,2.84-2.59,5c-2.46-.03-4.1-1.43-6.07-2.74-1.31-3.83-.81-3.89,.74-7.43Z"/>
  <path class="cls-4" d="M2110.45,281.47c3.32-.36,6.88-.82,10.18-.26,7.54,1.27,16,6.58,20.09,12.96,2.94,4.59,4.26,9.25,3.2,14.61,.08,.28,.16,.56,.22,.84,1.2,5.28-.6,11.19-3.58,15.62-4.9,7.3-11.9,11.01-20.23,12.82-4.36,.63-8.92,.46-13.16-.86-6.96-2.17-12.4-6.89-15.5-13.49-.44-.95-.83-1.93-1.16-2.92-.35-.99-.64-2-.88-3.02-.24-1.02-.43-2.05-.56-3.1-.15-1.04-.23-2.09-.26-3.14-.04-1.05-.02-2.1,.06-3.15,.07-1.05,.19-2.09,.36-3.13s.4-2.06,.68-3.07c.28-1.01,.61-2.01,.98-2.99,3.78-9.74,10.42-13.92,19.55-17.72Z"/>
  <path class="cls-29" d="M2110.04,289.47c5.32-.56,9.5-.83,14.48,1.59,.68,.33,1.33,.7,1.96,1.1,.64,.4,1.26,.83,1.86,1.29,.59,.46,1.15,.95,1.7,1.47s1.06,1.07,1.54,1.64c.49,.57,.95,1.17,1.38,1.79,.43,.62,.83,1.26,1.2,1.92,.36,.66,.69,1.33,.98,2.03,.29,.69,.55,1.4,.78,2.12,1.58,5.04,1.16,10.49-1.44,15.13-2.94,5.27-7.42,8.31-13.1,9.93-1.9,.6-3.52,.76-5.5,.74-4.6-.05-9.74-1.44-12.96-4.91-4.72-5.08-5.48-12.33-4.7-18.94,.92-8.05,5.7-12.41,11.82-16.9Z"/>
  <path class="cls-4" d="M2112.94,304.13c1.9-.16,3.82-.12,5.72-.14,3.02,1.96,3.34,2.01,4.6,5.33-1.52,3.75-2.16,3.85-5.44,5.95-3.52-.14-3.56-.12-6.24-2.41-.66-3.67-.14-5.35,1.36-8.73Z"/>
  <path class="cls-4" d="M2048.78,533.48c4.78,2.82,8.76,14.2,10.54,19.47,5.5,16.15,2.6,35.52-4.96,50.49-.56,1.1-1.15,2.18-1.78,3.25-.61,1.07-1.25,2.12-1.92,3.16-.67,1.04-1.36,2.06-2.08,3.07-.71,1.01-1.45,1.99-2.22,2.96-.76,.97-1.55,1.92-2.36,2.85-.81,.93-1.65,1.84-2.5,2.73-.85,.89-1.73,1.76-2.62,2.61-.91,.85-1.83,1.67-2.76,2.48-.93,.8-1.89,1.58-2.86,2.34-.97,.76-1.97,1.49-2.98,2.2-1.01,.71-2.04,1.39-3.08,2.05-1.05,.66-2.11,1.29-3.18,1.9-1.08,.61-2.17,1.19-3.28,1.74-1.09,.55-2.21,1.08-3.34,1.58-1.12,.5-2.26,.97-3.42,1.42-1.15,.45-2.31,.86-3.48,1.25-24.71,7.99-42.77,.18-64.68-10.81-2.02-3.85-6.34-6.16-9.92-8.31,5.94-2.97,12.74-6.56,16.1-12.53,12.54,6.49,20.87,14.38,35.81,14.72,.88,.02,1.76,.01,2.64-.02,.88-.03,1.76-.08,2.64-.15,.88-.07,1.75-.16,2.62-.28,.88-.11,1.75-.25,2.62-.41,.87-.16,1.73-.34,2.58-.54,.85-.2,1.71-.42,2.56-.66,.84-.24,1.68-.51,2.52-.79,.83-.28,1.65-.59,2.48-.91,.81-.33,1.62-.67,2.42-1.03,.8-.37,1.59-.75,2.38-1.15,.77-.4,1.55-.83,2.32-1.27,.76-.44,1.51-.9,2.24-1.38,.73-.48,1.46-.98,2.18-1.49,.72-.52,1.42-1.05,2.1-1.6,.69-.55,1.37-1.12,2.02-1.7,.67-.58,1.31-1.18,1.94-1.8,9.6-9.31,15.72-22.29,15.86-35.76,.1-8.81-3.18-20.86-9.44-27.18,6.18-3.31,11.1-7.88,16.3-12.52Z"/>
  <path class="cls-1" d="M1973.37,501.47c1.77-.28,3.56-.5,5.36-.67,1.79-.17,3.58-.28,5.38-.33,1.8-.05,3.6-.05,5.4,.01,1.8,.06,3.59,.18,5.38,.36,1.79,.17,3.57,.41,5.34,.7,1.77,.29,3.54,.63,5.3,1.04,1.76,.4,3.5,.86,5.22,1.37,1.72,.51,3.43,1.08,5.12,1.7,7.94,2.89,19.61,8.88,23.35,16.83-1.9,6.06-9.5,11.65-14.7,14.87-.92-3.06-3.98-5.24-6.46-7.11-10.42-7.86-26.03-11.7-38.89-9.37-14.14,2.56-26.83,14.29-33.87,26.41-2.14,3.68-3.46,7.78-5.88,11.31-.36,.52-.72,1.03-1.08,1.54,.42,1.06,.6,1.86,.58,3-.18,7.89,.1,15.05,1.8,22.8,1.04,4.77,3.74,9.07,3.62,13.99-2.78,5.82-10.62,11.05-16.14,14.17,.42-5.06-4.82-13.74-6.78-18.78-6.02-15.57-4.5-35.85,2.42-50.9,9.8-21.34,27.93-35.1,49.53-42.92Z"/>
  <path class="cls-1" d="M1982.22,534.81c9.04-.91,17.15,.62,24.93,5.33,9.2,5.56,16.24,14.94,18.77,25.41,.15,.56,.27,1.12,.38,1.68,.11,.56,.21,1.13,.3,1.7,.08,.57,.15,1.14,.2,1.71,.05,.57,.09,1.14,.1,1.72,.03,.57,.04,1.15,.04,1.72-.01,.57-.03,1.15-.06,1.72-.04,.57-.09,1.14-.16,1.71-.07,.57-.15,1.14-.24,1.71-.09,.57-.21,1.13-.34,1.69-.12,.56-.25,1.12-.4,1.67-.16,.55-.33,1.1-.52,1.65-.17,.54-.37,1.08-.58,1.62-.21,.53-.43,1.06-.66,1.59-.24,.52-.49,1.04-.76,1.55-.27,.51-.55,1.01-.84,1.51-.28,.49-.58,.98-.9,1.46-6.6,9.86-16.54,14.53-27.75,16.77-7.64,1.28-14.26,.13-21.23-3.04-8.54-3.88-14.72-11.52-17.93-20.21-3.6-9.73-3.12-19.88,1.3-29.27,5.42-11.55,14.72-17.2,26.35-21.38Z"/>
  <path class="cls-12" d="M2002.6,568.65c2.72,3.91,2.68,5.34,3.1,10.16-1.4,4.15-3.38,6.63-7.44,8.48-4.88,2.23-12.12,3.43-17.21,1.37-3.62-1.46-6.54-4.02-9.36-6.65,5.82-1.37,11.02-5.66,14.5-10.46,5.3,.14,10.34,.2,15.6-.57l.82-2.34Z"/>
  <path class="cls-29" d="M1971.69,582.02c-.25-1.77-.46-3.54-.62-5.32-.42-5.36,.82-10.36,4.52-14.42,3.46-3.79,8.78-6.15,13.9-6.24,3.84-.07,8.7,1.31,11.22,4.42,2.38,2.98,2.28,4.52,1.9,8.19l-.82,2.34c-5.26,.77-10.3,.71-15.6,.57-3.48,4.8-8.68,9.09-14.5,10.46Z"/>
  <path class="cls-12" d="M1677.8,164.16c8.58,8.7,17.68,8.79,29.2,8.87,21.02,.13,43.02-2.32,63.87-.14,1.79,1.93,1.91,3.11,2.21,5.68l1.35-.75,.97-4.15c6.42-2.99,68.11-1.79,78.16-.64,1.8,1.95,1.78,4.11,2.06,6.62l2.54-5.92c7.54-2.87,65.24-2.75,73.1-.6,1.36,2.78,1.44,4.9,1.52,7.91,1.04-3.84,.98-6.06,4.06-8.67,5.02-.58,9.56-.85,13.98-3.57,4.08,5.87,3.62,19.4,3.6,26.65,0,12.39-2.56,25.66-12,34.45-2.14,2.01-6.74,5.31-9.68,6-5.32,1.26-39.05-.35-47.55-.32-62.38,.18-125.42,2.25-187.73-.27-9.62-.39-13.45-4.5-19.61-11.2-2.85-19.35-.78-40.4-.06-59.94Z"/>
  <path class="cls-15" d="M1918.72,1592.66c20.67-2.86,173.13-3.68,189.46-.02,1.32,.3,.74,.23,2.26,0,41.77-1.66,84.55-1.88,126.36-1.25,6.84,.1,14.34,.11,19.27,5.26l-.22,3.06c-3,3.3-7.26,4.17-11.5,4.85-16.74,2.7-37.23,.51-54.36,.39-35.26-.25-70.51-.3-105.77-.15l-416.42,.05-1534.48,.11c-8.23,.04-29.21,2.28-35.71-2.54-1.21-3.46-1.05-4.04-.33-7.47,7.13-7.11,38.85-2.71,49.89-3.28,44.14,2.69,89.2,.97,133.46,.88,28.42-.06,58.53,2.07,86.65-1.07,32.7,2.61,66.9,.75,99.77,.74l185.04,.12,606.9,.22,659.74,.09Z"/>
  <path class="cls-21" d="M1924.24,462.36l1.12-.37c30.31-10.38,46.55-19.5,79.6-14.76,4.6,.66,10.8,2.88,13.68-1.44l.16-6.67,.88-.82c.28,3.98-.36,8.61,2.26,11.67,15.02,5.37,50.02,17.81,57.7,32.14,.26,.48,.38,1.02,.56,1.52-2.68,5.58-24.55,27.54-30.21,30.73-.16-.42-.3-.84-.48-1.25-4.08-9.33-24.75-19.49-34.01-22.57-1.28-.43-2.57-.82-3.86-1.19-1.29-.36-2.59-.7-3.9-.99-1.31-.3-2.63-.56-3.96-.8-1.32-.23-2.65-.43-3.98-.6-1.33-.17-2.67-.3-4.02-.4-1.33-.1-2.67-.17-4.02-.2-1.35-.03-2.69-.03-4.04,0-1.33,.03-2.67,.1-4.02,.2-1.33,.1-2.67,.23-4,.4-1.35,.17-2.68,.37-4,.6-1.32,.23-2.64,.5-3.96,.79-1.31,.3-2.61,.63-3.9,.99-1.29,.36-2.58,.76-3.86,1.18-1.27,.43-2.53,.88-3.78,1.37-1.25,.49-2.49,1.01-3.72,1.56-1.23,.55-2.44,1.13-3.64,1.74-20.97,10.95-37.99,31.06-44.73,53.79-.39,1.34-.75,2.69-1.08,4.04-.32,1.36-.61,2.72-.86,4.09-.25,1.37-.47,2.75-.66,4.13-.19,1.38-.34,2.77-.46,4.16s-.21,2.78-.26,4.17c-.05,1.39-.07,2.79-.04,4.18,.01,1.39,.07,2.79,.16,4.18,.09,1.39,.22,2.78,.38,4.16,.15,1.39,.33,2.77,.56,4.14,.23,1.38,.49,2.75,.78,4.11,.31,1.36,.64,2.72,1,4.06s.75,2.68,1.18,4.01c.43,1.33,.89,2.64,1.38,3.95,.49,1.3,1.02,2.6,1.58,3.87,.56,1.28,1.15,2.54,1.76,3.79,.63,1.25,1.28,2.48,1.96,3.7,10.82,19.36,31.19,35.43,52.56,41.33,21.87,6.04,45.15,1.59,64.52-9.77,19.55-11.46,34.95-30.22,40.71-52.31,4.86-18.67,3.82-40.33-6.16-57.18-2.66-4.51-5.4-7.78-9.52-11.07,7.92-4.54,28.77-20.36,31.59-28.62,.12-.36,.14-.75,.2-1.13,13.46,8.9,21.73,31.63,24.81,46.79,.56,2.81,.96,5.34,.4,8.18,8,17.22,1.12,47.52-5.06,64.54-5.56,15.29-18.49,40.98-33.37,49.14-13.84,17.53-41.29,30.51-62.88,34.43-16.97,2.39-33.77,2.81-50.6-.82-35.35-7.61-70.82-32.72-86.53-65.82-4.6-9.68-6.46-23.51-12.3-32.09-.38-.55-.78-1.09-1.18-1.64,3.3-7.62-1-28.59-.2-38.56,1.06-12.94,14.26-41.28,13.6-48.72,7.72-4.59,19.83-25,28.19-32.62,5.58-5.09,16.07-9.29,19.95-15.42Z"/>
  <path class="cls-26" d="M1369.18,155.1c29.97-5.43,63.6-19.52,81.71-45.32,2.37-3.37,4.53-6.94,6.53-10.55,23.69,32.42,54.33,47.88,92.56,57.83,1.94,.17,3.91-.22,5.17,1.39,5.45,7-2.83,57.45-5.19,68.23-3.49,15.99-9.12,32.66-17.65,46.68-18.35,28.45-42.93,43.9-74.35,54.8-15.22-5.13-29.85-11.38-43.09-20.6-31.94-22.25-49.87-55.12-56.47-92.94-2.6-19.17-4.7-38.38-6.31-57.66l17.09-1.86Z"/>
  <path class="cls-12" d="M1491.02,168.23l5.63,.72c2.79,2.46,2.72,2.28,3.11,5.98-4.78,15.47-41.49,54.83-54.04,68.51-7.26-5.75-14.27-11.82-21.34-17.79-3.21-2.61-6.52-5.61-8.92-8.99-1.82-2.56-1.26-5.29-.79-8.17,1.18-1.24,1.37-2,3.17-2.17,7.44-.73,21.29,12.53,26.67,16.93,14.99-18.62,30.17-37.57,46.51-55.02Z"/>
  <path class="cls-11" d="M1352.09,156.96l17.09-1.86c4.65,48.03,9.23,100.95,49.3,133.99,2.65,2.17,5.4,4.21,8.24,6.12,2.84,1.91,5.76,3.69,8.77,5.33,3.01,1.64,6.08,3.14,9.22,4.49,3.14,1.36,6.34,2.56,9.6,3.62,27.03-8.38,54.07-29.32,67.22-54.62,14.23-27.37,15.53-55.68,15.16-85.76-.04-3.12-.65-9.76,3.22-10.65,3.12-.72,6.84-.08,10.07-.58,1.94,.17,3.91-.22,5.17,1.39,5.45,7-2.83,57.45-5.19,68.23-3.49,15.99-9.12,32.66-17.65,46.68-18.35,28.45-42.93,43.9-74.35,54.8-15.22-5.13-29.85-11.38-43.09-20.6-31.94-22.25-49.87-55.12-56.47-92.94-2.6-19.17-4.7-38.38-6.31-57.66Z"/>
  <path class="cls-2" d="M1676.15,148.57l-.18-84.65c-.02-15.64-1.27-32.58,1.21-48.04,.81-5.05,1.88-10.24,6.48-13.19,2.08-1.33,4.15-1.89,6.6-2.07,10.7-.81,21.94-.05,32.7-.03l66.68,.14h99.01c20.69-.03,45.89-2.67,65.86,2.32,1.4,1.17,2.18,2.15,2.82,3.88,5.48,14.79,7.12,125.16,2.18,135.36,1.52,3.86,2.24,5.57,.54,9.62-.1,.25-.24,.49-.36,.73,.64,3.89,.78,5.95-1.4,9.58-.44,.72-.93,1.41-1.46,2.06-.55,.65-1.13,1.25-1.76,1.81-.64,.56-1.31,1.06-2.02,1.52-.72,.45-1.47,.85-2.24,1.19-4.42,2.72-8.96,2.99-13.98,3.57-3.08,2.61-3.02,4.83-4.06,8.67-.08-3.01-.16-5.12-1.52-7.91-7.86-2.15-65.56-2.27-73.1,.6l-2.54,5.92c-.28-2.51-.26-4.67-2.06-6.62-10.06-1.14-71.75-2.35-78.16,.64l-.97,4.15-1.35,.75c-.3-2.57-.42-3.76-2.21-5.68-20.85-2.17-42.85,.28-63.87,.14-11.52-.07-20.62-.17-29.2-8.87l-1.54-7.14-.11-8.45Z"/>
  <path class="cls-29" d="M1815.39,105.19c23.95-11.8,114.17-78.6,124.42-80.29l1.8,1.77-.32,3.11c-2.48,6.21-103.11,73.71-115.29,79.01-7.14,3.11-11.64,3.18-18.96,.18-10.85-4.43-20.92-12.37-30.57-18.95-17.78-12.08-35.5-24.25-53.15-36.52-10.13-7.09-20.29-15.32-31.03-21.41,.99-2.97,1.48-4.61,4.2-6.46,12.17,5.25,24.97,16.45,36.02,24.15,27.1,18.87,54.27,38.91,82.87,55.4Z"/>
  <path class="cls-16" d="M1941.3,29.78l1.6,2.57c-5.08,8.88-58.44,46.99-69.22,50.76,9.82,4.09,81.12,52.36,85.83,59.18,1.52,3.86,2.24,5.57,.54,9.62-.1,.25-.24,.49-.36,.73-25.65-15.46-61.48-42.69-89.41-50.51-7.9,6.98-47.31,27.33-57.44,26.55-12.53-.95-29.83-18.4-51.56-22.5-24.63,11.07-63.96,46.05-85.01,50.85l-.11-8.45c26.96-23.37,57.88-41.92,86.94-62.54-19.64-13.85-58.42-34.87-70.79-53.93,10.73,6.09,20.89,14.32,31.03,21.41,17.65,12.27,35.36,24.44,53.15,36.52,9.65,6.57,19.72,14.52,30.57,18.95,7.33,2.99,11.82,2.92,18.96-.18,12.18-5.3,112.81-72.8,115.29-79.01Z"/>
  <path class="cls-3" d="M1870.28,102.12c27.93,7.82,63.76,35.06,89.41,50.51,.64,3.89,.78,5.95-1.4,9.58-.44,.72-.93,1.41-1.46,2.06-.55,.65-1.13,1.25-1.76,1.81-.64,.56-1.31,1.06-2.02,1.52-.72,.45-1.47,.85-2.24,1.19-4.42,2.72-8.96,2.99-13.98,3.57-3.08,2.61-3.02,4.83-4.06,8.67-.08-3.01-.16-5.12-1.52-7.91-7.86-2.15-65.56-2.27-73.1,.6l-2.54,5.92c-.28-2.51-.26-4.67-2.06-6.62-10.06-1.14-71.75-2.35-78.16,.64l-.97,4.15-1.35,.75c-.3-2.57-.42-3.76-2.21-5.68-20.85-2.17-42.85,.28-63.87,.14-11.52-.07-20.62-.17-29.2-8.87l-1.54-7.14c21.05-4.79,60.38-39.78,85.01-50.85,21.73,4.1,39.04,21.55,51.56,22.5,10.14,.77,49.54-19.57,57.44-26.55Z"/>
  <path class="cls-19" d="M.32,1059.58l-.32-2.76c.84-.9,1.06-1.26,2.32-1.87,3.63-1.75,9.79-2.44,13.83-3.29,31.98-6.74,67.59-6.07,99.39,1.67,20.01,3.85,37.92,12.6,55.8,22,8.79,5.85,17.17,11.67,25.17,18.6,7.48,8.2,15.47,16.21,21.28,25.72,7.26,1.3,17.45,11.67,24.03,15.92,16.31,10.52,34.81,20.21,54.07,23.54l4.77-.56c3.66-1.92,7.24-3.97,10.82-6.04l-.13,2.35c-2.58,1.79-5.19,3.54-7.83,5.24,.2,7.18,.61,14.43,.29,21.61,7.6,5.32,22.31,15.12,24,24.63,.46,2.55,.6,5.18,.74,7.76,5.92-14.31,3.87-33,12.85-45.98l.65,1.96c-3.93,12.96-7.55,25.84-9.36,39.29-.07,12.24,1.25,22.27,4.83,33.94l.57-.14,3.28,3.27-.09,.72c19.37,8.3,37.19,10.21,58.03,9.88,.22,27.05,1.98,55.31,.06,82.24-30.87-.94-62.57-.84-93.43,.35l-8.16-.37-4.42,.23-4.99-1.41c-10.41-27.79-24.37-54.69-39.27-80.31-21.34,7.99-48.47,9.35-70.96,5.44-41.98-6.45-75.44-25.19-106.02-54.07-36.9-39.38-61.56-97.07-71.84-149.58Z"/>
  <path class="cls-28" d="M194.29,1111.31c10.6,21.02,16.15,68.84,20.7,93.92,13.67,15.85,27.25,31.17,38.16,49.14,15.2,27.65,30.19,55.12,40.25,85.14l-4.99-1.41c-10.41-27.79-24.37-54.69-39.27-80.31-2.29-5.07-5.04-8.74-8.56-12.98-12.52,.14-49.11-.44-58.73-4.04l.24-1.02c6.39-.94,12.11,1.03,18.44,1.39,12.65,.72,25.3,1.03,37.97,1.85l-1.34-.64,.78-2.04c-6.03-8.74-30.51-38.95-39.47-41.93-.57-2.41-1.23-3.19-3.05-4.85-10.71-10.1-21.71-19.86-33.01-29.29,.33-2.82,.86-2.58,2.85-4.41,15.67,13.11,30.7,26.93,45.07,41.46-6.73-29.54-11.93-59.97-16.04-89.98Z"/>
  <path class="cls-6" d="M.32,1059.58l-.32-2.76c.84-.9,1.06-1.26,2.32-1.87,3.63-1.75,9.79-2.44,13.83-3.29,31.98-6.74,67.59-6.07,99.39,1.67l-1.17,1.62c2.64,11.52,20.71,66.24,27.5,71.66-3.97-13-23.53-60.3-23.11-69.19,2.09,.42,2.55,.43,3.81,2.32,7.76,11.6,27.76,74.51,32.45,91.17,3.44,2.94,6.85,5.91,10.23,8.92-1.99,1.83-2.51,1.59-2.85,4.41-7.73-6.17-15.61-12.14-23.64-17.91-1.37-.59-2.18-1.08-3.29-2.12l-3.88-3.71c-23.65-16.29-47.15-32.67-71.95-47.17-15.7-9.18-47.3-23.17-59.33-33.75Z"/>
  <path class="cls-28" d="M141.88,1126.61c-3.97-13-23.53-60.3-23.11-69.19,2.09,.42,2.55,.43,3.81,2.32,7.76,11.6,27.76,74.51,32.45,91.17,3.44,2.94,6.85,5.91,10.23,8.92-1.99,1.83-2.51,1.59-2.85,4.41-7.73-6.17-15.61-12.14-23.64-17.91-1.37-.59-2.18-1.08-3.29-2.12l-3.88-3.71c-23.65-16.29-47.15-32.67-71.95-47.17-15.7-9.18-47.3-23.17-59.33-33.75,9.17-2.64,33.18,12.93,42.04,17.83,18.69,10.45,37.02,21.5,54.98,33.17,17.96,11.67,35.51,23.92,52.65,36.75-2.52-6.72-4.64-14.48-8.1-20.72Z"/>
  <path class="cls-25" d="M195.42,1193.54c1.82,1.66,2.48,2.44,3.05,4.85,8.96,2.98,33.44,33.2,39.47,41.93l-.78,2.04,1.34,.64c-12.67-.82-25.32-1.13-37.97-1.85-6.33-.36-12.05-2.33-18.44-1.39l-.24,1.02c9.63,3.6,46.22,4.17,58.73,4.04,3.53,4.24,6.28,7.91,8.56,12.98-21.34,7.99-48.47,9.35-70.96,5.44-41.98-6.45-75.44-25.19-106.02-54.07l.96-1.67c6.37-4.87,25.37-4.18,33.63-4.79,8.42-2.11,18.83-1.95,27.57-2.77,14.55-1.61,49.25-1.86,61.11-6.4Z"/>
  <path class="cls-5" d="M72.16,1209.16l.96-1.67c6.37-4.87,25.37-4.18,33.63-4.79l5.03,4.52c-11.6,1.04-28.53,4.53-39.61,1.94Z"/>
  <path class="cls-23" d="M195.42,1193.54c1.82,1.66,2.48,2.44,3.05,4.85-16.42,4.26-36.08,4.06-53.06,5.59-11.15,1.04-22.55,1.67-33.63,3.25l-5.03-4.52c8.42-2.11,18.83-1.95,27.57-2.77,14.55-1.61,49.25-1.86,61.11-6.4Z"/>
  <path class="cls-6" d="M.32,1059.58c12.04,10.58,43.63,24.57,59.33,33.75,24.81,14.5,48.31,30.88,71.95,47.17l3.88,3.71c1.11,1.04,1.92,1.53,3.29,2.12,8.03,5.77,15.91,11.74,23.64,17.91,11.3,9.43,22.3,19.19,33.01,29.29-11.85,4.54-46.56,4.79-61.11,6.4-8.74,.82-19.15,.66-27.57,2.77-8.25,.6-27.26-.08-33.63,4.79l-.96,1.67c-36.9-39.38-61.56-97.07-71.84-149.58Z"/>
  <path class="cls-5" d="M131.61,1140.5l3.88,3.71c1.11,1.04,1.92,1.53,3.29,2.12-23.37,.45-48.02,4.22-71.27,7.05-8.83,1.07-20.01,4.24-28.77,2.99l-1.56-2.18c.35-.66,.41-1.61,1.06-1.99,9.57-5.46,74.13-4.83,91.51-11.01,.63-.22,1.25-.47,1.88-.71Z"/>
  <path class="cls-13" d="M217.79,1119.65c7.26,1.3,17.45,11.67,24.03,15.92,16.31,10.52,34.81,20.21,54.07,23.54l4.77-.56c3.66-1.92,7.24-3.97,10.82-6.04l-.13,2.35c-2.58,1.79-5.19,3.54-7.83,5.24,.2,7.18,.61,14.43,.29,21.61,7.6,5.32,22.31,15.12,24,24.63,.46,2.55,.6,5.18,.74,7.76,5.92-14.31,3.87-33,12.85-45.98l.65,1.96c-3.93,12.96-7.55,25.84-9.36,39.29-.07,12.24,1.25,22.27,4.83,33.94l.57-.14,3.28,3.27-.09,.72c19.37,8.3,37.19,10.21,58.03,9.88,.22,27.05,1.98,55.31,.06,82.24-30.87-.94-62.57-.84-93.43,.35l-8.16-.37-4.42,.23c-10.06-30.02-25.05-57.49-40.25-85.14,.24-.73,.48-1.46,.7-2.19,14.77-50.27-12.99-90.4-36.06-132.53Z"/>
  <path class="cls-22" d="M300.67,1158.55c3.66-1.92,7.24-3.97,10.82-6.04l-.13,2.35c-2.58,1.79-5.19,3.54-7.83,5.24,.2,7.18,.61,14.43,.29,21.61,7.6,5.32,22.31,15.12,24,24.63,.46,2.55,.6,5.18,.74,7.76,5.92-14.31,3.87-33,12.85-45.98l.65,1.96c-3.93,12.96-7.55,25.84-9.36,39.29-.07,12.24,1.25,22.27,4.83,33.94l.57-.14,3.28,3.27-.09,.72c-15.09,28.94-27.74,60.69-35.34,92.47l-8.16-.37,2.87-22.33c1.73-19.81,1.76-39.67,1.99-59.54-1.06-32.85-3.32-65.62-6.78-98.3l4.77-.56Z"/>
  <path class="cls-22" d="M324.64,1269.08c-1.76-13.83,5.07-45.12,8.08-59.69-.07,12.24,1.25,22.27,4.83,33.94-4.1,8.44-7.8,17.92-12.92,25.76Z"/>
  <path class="cls-4" d="M300.67,1158.55c3.53,40.73,7.44,81.25,6.58,122.18-.22,10.49,1.14,26.04-2.33,35.83,.07,2.46,.22,4.86,.45,7.31l.85-.35c4.79-18.85,11.49-36.3,18.41-54.44,5.12-7.84,8.82-17.31,12.92-25.76l.57-.14,3.28,3.27-.09,.72c-15.09,28.94-27.74,60.69-35.34,92.47l-8.16-.37,2.87-22.33c1.73-19.81,1.76-39.67,1.99-59.54-1.06-32.85-3.32-65.62-6.78-98.3l4.77-.56Z"/>
  <path class="cls-10" d="M341.32,1247.18c19.37,8.3,37.19,10.21,58.03,9.88,.22,27.05,1.98,55.31,.06,82.24-30.87-.94-62.57-.84-93.43,.35,7.6-31.78,20.25-63.52,35.34-92.47Z"/>
  <path class="cls-12" d="M178.19,1263.23c22.49,3.91,49.62,2.55,70.96-5.44,14.89,25.62,28.85,52.53,39.27,80.31l4.99,1.41,4.42-.23,8.16,.37c30.86-1.19,62.56-1.29,93.43-.35,11.57-.13,22.84-1.08,31.68,8.14,2.46,2.57,4.2,5.92,4.04,9.55-.23,5.24-4.02,10.75-7.8,14.15-1.77,1.59-3.82,2.8-5.78,4.12-.55,.37-1.08,.75-1.62,1.12,26.14,22.56,40.89,49.27,43.54,84.12,2.58,33.92-8.97,66.42-31.21,92-17.4,20.01-39.43,32.49-64.97,38.99-28.12,3.13-58.23,1.01-86.65,1.07-44.26,.09-89.32,1.81-133.46-.88,23.67-3.45,49.74-.06,73.84-1.22-25.3-11.06-47.59-25.15-64.39-47.48-20.85-27.71-30.1-61.03-25.05-95.44,4.24-28.9,18.59-53.99,41.94-71.48-5.61-2.9-10.04-5.84-12.7-11.8-2.09-4.68-2.63-9.95-.61-14.73,2.57-6.08,7.25-8.8,13.2-10.95l2.99-1.21c4.1-14.1,1.83-57.11,1.8-74.14Z"/>
  <path class="cls-29" d="M171.87,1436.57c2.37,.11,4.75,.45,7.11,.69,7.1,5.73,2.63,28.75,3.6,38.21,.46,4.18,1.25,8.31,2.36,12.36,1.11,4.06,2.53,8.01,4.26,11.85,11.69,26.57,45.59,43.05,48.8,52.44-.77,3.95-1.91,4.82-4.5,7.8-8.01-.29-13.71-3.86-20.2-8.18-22.99-15.34-40.99-41.42-46.32-68.6-2.89-14.74-3.86-33.56,4.88-46.57Z"/>
  <path class="cls-16" d="M178.19,1263.23c22.49,3.91,49.62,2.55,70.96-5.44,14.89,25.62,28.85,52.53,39.27,80.31l4.99,1.41,4.42-.23,8.16,.37c30.86-1.19,62.56-1.29,93.43-.35,11.57-.13,22.84-1.08,31.68,8.14,2.46,2.57,4.2,5.92,4.04,9.55-.23,5.24-4.02,10.75-7.8,14.15-1.77,1.59-3.82,2.8-5.78,4.12-.55,.37-1.08,.75-1.62,1.12-81.84,2.77-164.5-.58-246.42-.33-5.61-2.9-10.04-5.84-12.7-11.8-2.09-4.68-2.63-9.95-.61-14.73,2.57-6.08,7.25-8.8,13.2-10.95l2.99-1.21c4.1-14.1,1.83-57.11,1.8-74.14Z"/>
  <path class="cls-12" d="M178.19,1263.23c22.49,3.91,49.62,2.55,70.96-5.44,14.89,25.62,28.85,52.53,39.27,80.31-11.04,3.57-98.32,1.35-115.01,.47l2.99-1.21c4.1-14.1,1.83-57.11,1.8-74.14Z"/>
  <path class="cls-12" d="M2114.62,549.94c28.83,7.16,98.41,77.97,118.2,102.48,16.73,20.73,31.47,43.24,45.23,66.04,72.18,119.65,96.75,287.03,63.06,422.75-5.28,21.26-41.63,135.74-57.88,145.95-.28,.18-.6,.31-.88,.47-.7,12.33-43.75,75.25-54.84,84.71-1.64,1.4-3.38,2.18-5.36,3,.76-2,1.14-3.6,1.34-5.75,1.52-16.3,3.14-42.17-8.4-55.17-17.51-19.75-63.58-10.13-88.03-12.27l-1.68-.16c14.32-7.08,27.65-14.25,38.63-26.2,6.38-6.96,13.74-18.48,13.4-28.23,3.96-5.07,4.36-13.84,4.3-20.13-.16-17.38-6.84-36.99-19.43-49.22-.9-1.53-2.5-2.85-3.76-4.13-1.7-4.99-8.4-10.12-12.54-13.06,11.42-6.3,26.15-20.94,32.21-32.37,2.64-2.58,3.2-2.88,4.02-6.64,11.7-12.84,19.89-33.52,24.79-50.08,10.06-2.33,21.01-5.88,31.37-5.79,22.49-6.75,52.88-6.25,76.18-4.2,1.38-3.42,1.1-6.18,.74-9.76-1.44-14.61-5.4-29.38-8.5-43.73-22.25-102.77-73.52-201.08-151.31-272.6-13.42-12.33-27.67-25.07-42.69-35.4-10.68-7.33-23.51-12.88-33.17-21.49-4.4-3.92-2.96-9.9-3.42-15.36,14.88-8.15,27.81-33.84,33.37-49.14,6.18-17.02,13.06-47.32,5.06-64.54Z"/>
  <path class="cls-22" d="M2238.37,1066.15c22.49-6.75,52.88-6.25,76.18-4.2,4.24,.86,8.5,1.14,11.64,4.35,.04,3.53-.4,3.66-2.46,6.35,2.6,8.03-3.84,25.38-7.48,33.29-.54,1.18-1.26,1.97-2.08,2.94,.62,.89,2.06,2.43,2.38,3.4,3.62,10.91-5.08,63.18-7.48,76.81-2.98,16.98-19.39,86.6-26.71,98.54-.7,12.33-43.75,75.25-54.84,84.71-1.64,1.4-3.38,2.18-5.36,3,.76-2,1.14-3.6,1.34-5.75,1.52-16.3,3.14-42.17-8.4-55.17-17.51-19.75-63.58-10.13-88.03-12.27l-1.68-.16c14.32-7.08,27.65-14.25,38.63-26.2,6.38-6.96,13.74-18.48,13.4-28.23,3.96-5.07,4.36-13.84,4.3-20.13-.16-17.38-6.84-36.99-19.43-49.22-.9-1.53-2.5-2.85-3.76-4.13-1.7-4.99-8.4-10.12-12.54-13.06,11.42-6.3,26.15-20.94,32.21-32.37,2.64-2.58,3.2-2.88,4.02-6.64,11.7-12.84,19.89-33.52,24.79-50.08,10.06-2.33,21.01-5.88,31.37-5.79Z"/>
  <path class="cls-6" d="M2175.95,1166.79c3.08,3.71,5.58,10.3,5.58,15.15,13.64,15.98,31.03,20.61,51.48,22.27,1.35,.11,2.69,.19,4.04,.25l13.62,.58c-3.92,10.97-35.21,29.17-46.35,34.51-8.02,3.85-17.83,8.34-26.91,8,3.96-5.07,4.36-13.84,4.3-20.13-.16-17.38-6.84-36.99-19.43-49.22,5.06-3.15,10.26-6.39,13.68-11.41Z"/>
  <path class="cls-6" d="M2223.61,1134.2c2.1-1.25,3.12-1.97,4.34-4.11,11.4,5.61,22.11,8.93,34.79,10.47,5.72,.7,31.67-.25,34.45,1.6-.7,1.77-1.14,2.79-2.56,4.06,.8,10.35-20.19,34.9-27.55,43.53-4.08,4.77-7.92,9.61-13.56,12.53l-2.86,2.77-13.62-.58c-1.35-.06-2.69-.15-4.04-.25-20.45-1.66-37.85-6.28-51.48-22.27l3.78,.95-.14-3.29c.2-4.73-2.18-11.29-4.62-15.32,15.08-8.82,27.89-21.26,43.07-30.09Z"/>
  <path class="cls-5" d="M2238.39,1200.73c4.9-.1,10.8-1.04,15.14,1.54l-2.86,2.77-13.62-.58,1.34-3.74Z"/>
  <path class="cls-23" d="M2185.16,1179.61c19.39,14.94,27.07,17.06,51.26,20.49,1.26,.18,.76,.05,1.96,.63l-1.34,3.74c-1.35-.06-2.69-.15-4.04-.25-20.45-1.66-37.85-6.28-51.48-22.27l3.78,.95-.14-3.29Z"/>
  <path class="cls-23" d="M2223.61,1134.2c2.1-1.25,3.12-1.97,4.34-4.11,11.4,5.61,22.11,8.93,34.79,10.47,5.72,.7,31.67-.25,34.45,1.6-.7,1.77-1.14,2.79-2.56,4.06-26.15,.36-46.77-2.03-71.02-12.01Z"/>
  <path class="cls-6" d="M2238.37,1066.15c22.49-6.75,52.88-6.25,76.18-4.2,4.24,.86,8.5,1.14,11.64,4.35,.04,3.53-.4,3.66-2.46,6.35,2.6,8.03-3.84,25.38-7.48,33.29-.54,1.18-1.26,1.97-2.08,2.94-.48,7.45-9.4,26.72-14.76,31.76-.6,.56-1.58,1.12-2.22,1.53-2.78-1.84-28.73-.9-34.45-1.6-12.68-1.54-23.39-4.86-34.79-10.47-1.22,2.14-2.24,2.87-4.34,4.11-15.18,8.82-27.99,21.27-43.07,30.09,2.44,4.03,4.82,10.59,4.62,15.32l.14,3.29-3.78-.95c0-4.84-2.5-11.44-5.58-15.15-3.42,5.02-8.62,8.26-13.68,11.41-.9-1.53-2.5-2.85-3.76-4.13-1.7-4.99-8.4-10.12-12.54-13.06,11.42-6.3,26.15-20.94,32.21-32.37,2.64-2.58,3.2-2.88,4.02-6.64,11.7-12.84,19.89-33.52,24.79-50.08,10.06-2.33,21.01-5.88,31.37-5.79Z"/>
  <path class="cls-7" d="M2238.37,1066.15l3.66,1.88c.16,8.04-12.86,50.79-17.99,57.53,21.97-8.49,81.62-54.88,98.99-54.87l.7,1.96c-16.15,9.69-32.73,18.47-48.76,28.46-15.06,9.38-30.93,21.8-47.01,28.99-1.22,2.14-2.24,2.87-4.34,4.11-15.18,8.82-27.99,21.27-43.07,30.09,2.44,4.03,4.82,10.59,4.62,15.32l.14,3.29-3.78-.95c0-4.84-2.5-11.44-5.58-15.15-3.42,5.02-8.62,8.26-13.68,11.41-.9-1.53-2.5-2.85-3.76-4.13-1.7-4.99-8.4-10.12-12.54-13.06,11.42-6.3,26.15-20.94,32.21-32.37,2.64-2.58,3.2-2.88,4.02-6.64,1.42,1.27,2.08,2.52,2.96,4.21,.06,10.04-.32,21.89-5.26,30.87,10.66-4.28,33.09-20.28,40.73-28.7,4.56-7.41,5.92-21.67,8.6-30.56,2.7-9,7.54-18.66,9.24-27.77,.26-1.44,.1-2.49-.1-3.92Z"/>
  <path class="cls-5" d="M2145.97,1161.02c11.42-6.3,26.15-20.94,32.21-32.37,2.66,6.68,1.3,23.52-1.72,30.39-.18,.43-.4,.84-.6,1.27-3.04,5.46-12.02,10.33-17.35,13.77-1.7-4.99-8.4-10.12-12.54-13.06Z"/>
  <path class="cls-6" d="M2207,1071.93c10.06-2.33,21.01-5.88,31.37-5.79,.2,1.43,.36,2.48,.1,3.92-1.7,9.11-6.54,18.77-9.24,27.77-2.68,8.89-4.04,23.15-8.6,30.56-7.64,8.41-30.07,24.42-40.73,28.7,4.94-8.99,5.32-20.83,5.26-30.87-.88-1.69-1.54-2.93-2.96-4.21,11.7-12.84,19.89-33.52,24.79-50.08Z"/>
  <path class="cls-6" d="M2227.95,1130.09c16.08-7.19,31.95-19.61,47.01-28.99,16.03-9.99,32.61-18.77,48.76-28.46,2.6,8.03-3.84,25.38-7.48,33.29-.54,1.18-1.26,1.97-2.08,2.94-.48,7.45-9.4,26.72-14.76,31.76-.6,.56-1.58,1.12-2.22,1.53-2.78-1.84-28.73-.9-34.45-1.6-12.68-1.54-23.39-4.86-34.79-10.47Z"/>
  <path class="cls-10" d="M1699.61,539.73c44.28-28.51,125.07-31.54,176.49-29.33,.66,7.44-12.54,35.79-13.6,48.72-.8,9.96,3.5,30.93,.2,38.56,.4,.55,.8,1.08,1.18,1.64,5.84,8.58,7.7,22.41,12.3,32.09,15.72,33.1,51.18,58.2,86.53,65.82,16.83,3.63,33.63,3.2,50.6,.82,21.59-3.91,49.05-16.9,62.88-34.43,.46,5.46-.98,11.45,3.42,15.36,9.66,8.6,22.49,14.16,33.17,21.49,15.02,10.33,29.27,23.07,42.69,35.4,77.8,71.51,129.06,169.82,151.31,272.6,3.1,14.34,7.06,29.12,8.5,43.73,.36,3.59,.64,6.35-.74,9.76-23.29-2.05-53.68-2.55-76.18,4.2-10.36-.09-21.31,3.45-31.37,5.79-4.9,16.56-13.1,37.24-24.79,50.08-.82,3.76-1.38,4.06-4.02,6.64-6.06,11.42-20.79,26.06-32.21,32.37,4.14,2.94,10.84,8.06,12.54,13.06,1.26,1.28,2.86,2.6,3.76,4.13,12.6,12.24,19.27,31.84,19.43,49.22,.06,6.28-.34,15.05-4.3,20.13,.34,9.75-7.02,21.27-13.4,28.23-10.98,11.95-24.31,19.12-38.63,26.2l1.68,.16c24.45,2.14,70.52-7.48,88.03,12.27,11.54,13,9.92,38.87,8.4,55.17-.2,2.14-.58,3.75-1.34,5.75-.2,4.36-3.14,7.73-6.24,10.61-7.68,7.1-17.87,9.68-27.99,10.46,3.58,18.09,2.56,96.82-1.14,114.66-.67,3.19-1.48,6.34-2.44,9.45-.96,3.11-2.07,6.17-3.34,9.17-1.25,3-2.65,5.94-4.18,8.81-1.55,2.87-3.22,5.66-5.02,8.37-10.32,15.63-25.15,30.14-42.41,37.8-6.1,2.71-13.26,4.61-18.95,7.98-1.52,.23-.94,.29-2.26,0-16.34-3.66-168.79-2.84-189.46,.02l-659.74-.09c8.3-10.38,51.46-30.99,65.96-40.77,29.23-19.72,57.52-41.53,82-67,6.58-3.22,32.59-1,40.83-.92l134.83,.02c22.71,.02,51.91,2.85,73.71-1.49,1.28-.26,2.56-.56,3.82-.9,1.26-.34,2.52-.73,3.75-1.16,1.24-.43,2.46-.91,3.66-1.42,1.2-.52,2.39-1.08,3.55-1.68,1.17-.6,2.31-1.24,3.43-1.92,1.12-.68,2.22-1.4,3.29-2.15,1.07-.76,2.11-1.55,3.13-2.38,1.02-.83,2-1.69,2.96-2.59,9.63-9.16,14.1-22.34,15.65-35.28,2.11-17.54,.54-36.67,.52-54.36l.17-99.81-.14-264.37c-.02-46.92-1.02-94.03,.34-140.91-1.75-24.5-.16-50.33-.17-74.94l-.02-167.77c-.01-30.16,1.25-60.94-.67-91.03Z"/>
  <path class="cls-18" d="M1906.23,1211.85c-1.32-7.16-13.18-13.57-14.94-26.23-1.28-9.32,1.18-18.5,7.12-25.84,12.08-14.96,24.91-13.31,41.69-14.99,3.02-.3,3.44-.13,5.3-2.51-2.32-6.34-19.13-15.75-24.47-21.96-9.32-10.81-12.8-23.66-11.64-37.77,1.02-12.27,8.86-23.63,18.05-31.43,8.94-7.57,23.07-14.59,35.03-13.18,4.42,.52,10.78,1.93,13.72,5.42,3.7,12.46,6,21.13-.7,33.31-3.96,7.18-9.24,13.42-7.04,22.19,2.5,10.05,16.02,14.5,17.67,24.07,.08,.33,.16,.65,.24,.98,2.96,12.7-5.64,23.78,.1,35.96-3.22,15.97-36.83,27.95-18.37,55.1,12.84,18.92,85.87,72.45,89.03,85.84-20.03,2.33-56.92,.11-78.58,.07-38.49-.07-78.76,2.4-117.02-.98-1.38-6.44-16.63-13.18-19.43-31.18-1.92-12.25,1.74-24.6,9.22-34.38,14.36-18.78,33.37-19.4,55.02-22.49Z"/>
  <path class="cls-26" d="M1932.98,1237.46c5.28-.72,9.76-.68,14.68,1.59,5.3,2.44,9.84,7.24,11.76,12.78,1.48,4.24,1.38,8.82-.66,12.85-2.8,5.59-7.68,8.34-13.42,10.14-2.26,.75-4.64,.93-7.02,.72-5.12-.45-9.84-2.41-12.98-6.61-3.58-4.8-4.5-11.78-3.38-17.57,1.3-6.88,5.6-10.24,11.02-13.91Z"/>
  <path class="cls-26" d="M1976.09,1043.35c10.58,2.03,19.87,9.67,25.91,18.42,2.18,3.14,6.64,9.08,6.64,12.91,6.2-.26,12.98,0,19.07-1.04,17.09,.26,30.45,4.58,42.73,17.06,8.06,8.17,14.3,18.56,14.16,30.32-.08,5.95-.92,11.22-4.6,16.01l-.36,3.83c11.44,5.99,50.92-3.52,66.34,20.16,4.14,2.94,10.84,8.06,12.54,13.06,1.26,1.28,2.86,2.6,3.76,4.13,12.6,12.24,19.27,31.84,19.43,49.22,.06,6.28-.34,15.05-4.3,20.13,.34,9.75-7.02,21.27-13.4,28.23-10.98,11.95-24.31,19.12-38.63,26.2-12.84,.84-26.13,.12-39.01,.24-9.46-1.16-19.79-.84-29.35-1.41-3.16-13.39-76.2-66.92-89.03-85.84-18.45-27.16,15.16-39.13,18.37-55.1-5.74-12.18,2.86-23.26-.1-35.96-.08-.33-.16-.65-.24-.98-1.66-9.57-15.18-14.03-17.67-24.07-2.2-8.77,3.08-15.02,7.04-22.19,6.7-12.18,4.4-20.85,.7-33.31Z"/>
  <path class="cls-11" d="M2018.81,1105.47c5.74-.67,11.3-.11,16.24,3.15,.64,.42,1.25,.87,1.84,1.36,.59,.49,1.15,1,1.68,1.55,.52,.55,1.02,1.12,1.5,1.72,.47,.6,.9,1.22,1.3,1.87,.4,.65,.77,1.32,1.1,2,.33,.69,.63,1.39,.88,2.11,.25,.72,.47,1.45,.64,2.19,.17,.74,.31,1.49,.4,2.25,.09,.66,.15,1.31,.18,1.98,.01,.66,0,1.32-.04,1.98-.04,.66-.11,1.32-.22,1.97-.11,.65-.24,1.3-.4,1.94-.17,.64-.37,1.27-.6,1.89-.24,.62-.51,1.23-.8,1.82-.28,.59-.6,1.17-.96,1.73-.35,.56-.72,1.11-1.12,1.63-4.08,5.25-8.68,7.12-15.1,7.92-2.16,.19-4.34-.2-6.44-.75-5.34-1.4-10.48-4.9-13.22-9.77-2.82-4.95-3.14-11-1.5-16.39,2.28-7.54,8.08-10.89,14.64-14.15Z"/>
  <path class="cls-11" d="M2093.79,1193.48c6.9-.04,12.86,.54,18.79,4.55,.72,.48,1.42,1,2.1,1.56,.67,.55,1.31,1.14,1.92,1.76s1.19,1.27,1.74,1.95c.53,.68,1.04,1.39,1.52,2.12,.47,.73,.89,1.49,1.28,2.27,.4,.78,.75,1.57,1.06,2.39,.31,.81,.57,1.64,.8,2.48,.23,.84,.41,1.69,.54,2.55,.13,.86,.22,1.72,.26,2.59,.04,.87,.03,1.74-.02,2.6-.05,.87-.15,1.73-.28,2.59-.15,.86-.33,1.71-.56,2.55-.23,.84-.49,1.66-.8,2.48-.32,.81-.68,1.6-1.08,2.38-.39,.77-.82,1.53-1.3,2.26-.47,.73-.97,1.43-1.52,2.11-5.6,6.86-12.38,9.04-20.75,10.09-4.18-.2-8.02-1.16-11.82-2.93-6.06-2.8-10.68-7.46-12.96-13.75-2.48-6.79-1.7-14.19,1.6-20.56,4.28-8.29,10.96-11.65,19.47-14.05Z"/>
  <path class="cls-4" d="M1861.42,1299.9c38.27,3.38,78.54,.91,117.02,.98,21.65,.04,58.54,2.26,78.58-.07,9.56,.57,19.89,.25,29.35,1.41,12.88-.12,26.17,.59,39.01-.24l1.68,.16c24.45,2.14,70.52-7.48,88.03,12.27,11.54,13,9.92,38.87,8.4,55.17-.2,2.14-.58,3.75-1.34,5.75-.2,4.36-3.14,7.73-6.24,10.61-7.68,7.1-17.87,9.68-27.99,10.46,3.58,18.09,2.56,96.82-1.14,114.66-.67,3.19-1.48,6.34-2.44,9.45-.96,3.11-2.07,6.17-3.34,9.17-1.25,3-2.65,5.94-4.18,8.81-1.55,2.87-3.22,5.66-5.02,8.37-10.32,15.63-25.15,30.14-42.41,37.8-6.1,2.71-13.26,4.61-18.95,7.98-1.52,.23-.94,.29-2.26,0-16.34-3.66-168.79-2.84-189.46,.02-1.08-3.22-23.53-14.52-28.21-17.29-3.12-4.01-7.94-7.56-11.56-11.23-33.83-34.31-28.45-81.55-27.95-125.78l-.06-1.32-.08-42.23c-9.36-.2-16.28,.31-23.59-6.34-9.04-8.23-11.38-20.35-11.62-32.05-.34-16.68,1.98-37.89,14.62-50.23,8.02-7.83,20.81-6.28,31.15-6.29Z"/>
  <path class="cls-15" d="M1850.86,1394.81c49.89,.55,99.78,.81,149.67,.8,24.51,.04,50.64,1.76,75.02-.4l110.11,.35c3.6,6.86,3.72,32.01,1.46,39.39-.24,.78-.8,1.79-1.14,2.47-47.79,1.79-95.77-.61-143.56-.61-63.74,0-127.78,2.01-191.48,.24l-.08-42.23Z"/>
  <path class="cls-1" d="M1861.42,1299.9c38.27,3.38,78.54,.91,117.02,.98,21.65,.04,58.54,2.26,78.58-.07,9.56,.57,19.89,.25,29.35,1.41,13.48,10.81,25.59,20.81,27.71,39.17,1.46,12.58-2.12,26.36-10.1,36.27-6.52,8.12-18.17,15.67-28.43,17.53-24.37,2.16-50.5,.45-75.02,.4-49.89,.02-99.78-.25-149.67-.8-9.36-.2-16.28,.31-23.59-6.34-9.04-8.23-11.38-20.35-11.62-32.05-.34-16.68,1.98-37.89,14.62-50.23,8.02-7.83,20.81-6.28,31.15-6.29Z"/>
  <path class="cls-1" d="M1851,1438.35l223.03-.23c6.38,11.94,.54,48.99-3.48,62.13-8.12,26.47-25.41,49.85-50.12,62.89-31.61,16.68-71.4,10.69-105.97,10.48-7.54-.05-16.88-1.08-23.95,1.75-3.12-4.01-7.94-7.56-11.56-11.23-33.83-34.31-28.45-81.55-27.95-125.78Z"/>
  <path class="cls-22" d="M1699.61,539.73c44.28-28.51,125.07-31.54,176.49-29.33,.66,7.44-12.54,35.79-13.6,48.72-.8,9.96,3.5,30.93,.2,38.56,.4,.55,.8,1.08,1.18,1.64,5.84,8.58,7.7,22.41,12.3,32.09,15.72,33.1,51.18,58.2,86.53,65.82,16.83,3.63,33.63,3.2,50.6,.82,21.59-3.91,49.05-16.9,62.88-34.43,.46,5.46-.98,11.45,3.42,15.36,9.66,8.6,22.49,14.16,33.17,21.49,15.02,10.33,29.27,23.07,42.69,35.4,77.8,71.51,129.06,169.82,151.31,272.6,3.1,14.34,7.06,29.12,8.5,43.73,.36,3.59,.64,6.35-.74,9.76-23.29-2.05-53.68-2.55-76.18,4.2-10.36-.09-21.31,3.45-31.37,5.79-4.9,16.56-13.1,37.24-24.79,50.08-.82,3.76-1.38,4.06-4.02,6.64-6.06,11.42-20.79,26.06-32.21,32.37-15.42-23.68-54.9-14.17-66.34-20.16l.36-3.83c3.68-4.79,4.52-10.06,4.6-16.01,.14-11.76-6.1-22.15-14.16-30.32-12.28-12.48-25.63-16.8-42.73-17.06,.92-7.75-2.08-18.19-2.56-26.42-1.3-22.02,10.9-36.8,18.69-56.07l.32-.8,1.6-2.87c5.22-5.44,9.62-11.89,14.78-17.5,6.26-6.8,13.38-12.8,19.35-19.83,1.62-1.2,2.78-2.43,4.14-3.9,1.8-1.14,2.74-2.2,4.02-3.93-18.95-14.97-38.23-28.45-59.7-39.61-44.71-23.25-96.99-33.18-145.98-17.31-103.53,33.54-66.32,147.49-103.98,219.34-16.8,32.06-43.53,45.36-76.61,55.46,.56-66.18,.29-132.56-.33-198.73-.27-28.95,1.71-59.25-.99-88-1.75-24.5-.16-50.33-.17-74.94l-.02-167.77c-.01-30.16,1.25-60.94-.67-91.03Z"/>
  <path class="cls-4" d="M1826.21,741.41c2.28,.18,3.88,.74,5.98,1.61,4.02,5.64,2.52,13.86,2.32,20.52,7.24-.31,14.74-1.69,21.01,2.59,1.2,.81,.98,1.64,1.24,2.99-.34,.39-.66,.8-1.02,1.17-5.12,5.3-15.44,3.68-22.19,3.51,.18,7.94,1.54,18.15-3.24,24.9-1.06-.74-2.02-1.47-2.9-2.43-5.24-5.61-3.42-15.33-3.18-22.45-6.62,.29-14.2,1.57-20.15-1.88-2.03-1.18-1.84-1.34-2.45-3.6,.33-.37,.64-.76,.99-1.11,4.96-5.02,15.22-3.32,21.56-3.05-.14-7.31-1.26-16.1,2.04-22.77Z"/>
  <path class="cls-4" d="M2013.53,769.47c4.48-.91,9.26-1.72,13.66-.06,5.28,2,9.94,6.67,11.92,11.98,1.54,4.16,1.48,8.69-.54,12.68-2.44,4.82-6.48,7.52-11.44,9.23-.88,.61-1.12,.87-2.32,1.15-4.68,1.09-10.44-.13-14.02-3.34-4.46-3.99-6.4-10.58-6.3-16.42,.12-7.07,4.24-10.78,9.04-15.22Z"/>
  <path class="cls-6" d="M2174.71,896.71c2.68-.07,3.38-.41,5.42,1.59,9.1,8.97,27.39,57.5,27.07,70.59-.02,1.09-.18,1.63-.38,2.76l.54,2.37c5.34,9.48,7.56,55.18,3.94,66.34-.34,1.07-.96,2.09-1.52,3.05l-.82,4.06c1.9,6.77-4.4,20.23-1.96,24.45-4.9,16.56-13.1,37.24-24.79,50.08-.82,3.76-1.38,4.06-4.02,6.64-6.06,11.42-20.79,26.06-32.21,32.37-15.42-23.68-54.9-14.17-66.34-20.16l.36-3.83c3.68-4.79,4.52-10.06,4.6-16.01,.14-11.76-6.1-22.15-14.16-30.32-12.28-12.48-25.63-16.8-42.73-17.06,.92-7.75-2.08-18.19-2.56-26.42-1.3-22.02,10.9-36.8,18.69-56.07l.32-.8,1.6-2.87c5.22-5.44,9.62-11.89,14.78-17.5,6.26-6.8,13.38-12.8,19.35-19.83,1.62-1.2,2.78-2.43,4.14-3.9,1.8-1.14,2.74-2.2,4.02-3.93,9.16-4.39,17.49-10.79,26.05-16.26,18.79-12,39.21-22.84,60.6-29.35Z"/>
  <path class="cls-5" d="M2044.17,990.36c1.24,5.56,2.06,11.35,.7,16.97l.38,1c11.8,32.49,13.02,54.76,36.97,84.34,3.42,4.22,7.76,10.2,12.34,13.16,2.46,.4,4.54,1.09,6.92,.22,29.21-4.78,58.06-21.74,80.28-40.87,8.88-7.66,17.61-16.68,27.31-23.2l.72,1.44-.82,4.06c-2.26,4.77-7.94,8.88-11.86,12.37-22.19,19.7-47.81,36.38-75.84,46.36-7.78,2.79-15.76,4.83-23.91,6.12-.32,6.44-6.52,19.69-11,24.32-.92,.96-1.86,1.4-3.04,1.96l-3.32-1.58c3.68-4.79,4.52-10.06,4.6-16.01,.14-11.76-6.1-22.15-14.16-30.32-12.28-12.48-25.63-16.8-42.73-17.06,.92-7.75-2.08-18.19-2.56-26.42-1.3-22.02,10.9-36.8,18.69-56.07l.32-.8Z"/>
  <path class="cls-6" d="M2207.36,974.03c5.34,9.48,7.56,55.18,3.94,66.34-.34,1.07-.96,2.09-1.52,3.05l-.72-1.44c-9.7,6.52-18.43,15.54-27.31,23.2-22.21,19.13-51.06,36.09-80.28,40.87,4.52-12.23,25.27-55.62,24.19-65.41l2.26-1.41c15.32-1.66,38.59-23.29,50.28-33.33,7.58-6.49,28.39-22.12,29.15-31.87Z"/>
  <path class="cls-5" d="M2084.03,946.25c4.04,4.11,4.52,11.84,4.38,17.38-.04,1.45-.26,2.67-.72,4.04,9.94,10.22,15.08,66.76,39.81,70.22l.42,1.34-2.26,1.41c1.08,9.79-19.67,53.17-24.19,65.41-2.38,.87-4.46,.18-6.92-.22-4.58-2.95-8.92-8.94-12.34-13.16-23.95-29.59-25.17-51.85-36.97-84.34l-.38-1c1.36-5.63,.54-11.41-.7-16.97l1.6-2.87c5.22-5.44,9.62-11.89,14.78-17.5,6.26-6.8,13.38-12.8,19.35-19.83,1.62-1.2,2.78-2.43,4.14-3.9Z"/>
  <path class="cls-7" d="M2045.76,987.49c3.04,2.16,3.48,2.21,4.06,5.84,.42,2.51-.12,5.28-.96,7.66,6.64,13.85,9.44,39.63,17.57,57.94,5.08,11.44,26.49,39.5,28.11,46.9-4.58-2.95-8.92-8.94-12.34-13.16-23.95-29.59-25.17-51.85-36.97-84.34l-.38-1c1.36-5.63,.54-11.41-.7-16.97l1.6-2.87Z"/>
  <path class="cls-7" d="M2084.03,946.25c4.04,4.11,4.52,11.84,4.38,17.38-.04,1.45-.26,2.67-.72,4.04,9.94,10.22,15.08,66.76,39.81,70.22l.42,1.34-2.26,1.41c-1.82,1.41-2.46,1.36-4.78,1.65-19.17-10.21-30.23-51.89-37.11-71.78,.62-5.84-.4-15.59-3.88-20.36,1.62-1.2,2.78-2.43,4.14-3.9Z"/>
  <path class="cls-5" d="M2174.71,896.71c2.68-.07,3.38-.41,5.42,1.59,9.1,8.97,27.39,57.5,27.07,70.59-.02,1.09-.18,1.63-.38,2.76l.54,2.37c-.76,9.75-21.57,25.38-29.15,31.87-11.7,10.04-34.97,31.68-50.28,33.33l-.42-1.34c-24.73-3.45-29.87-59.99-39.81-70.22,.46-1.37,.68-2.59,.72-4.04,.14-5.54-.34-13.28-4.38-17.38,1.8-1.14,2.74-2.2,4.02-3.93,9.16-4.39,17.49-10.79,26.05-16.26,18.79-12,39.21-22.84,60.6-29.35Z"/>
  <path class="cls-6" d="M2174.71,896.71c2.68-.07,3.38-.41,5.42,1.59,9.1,8.97,27.39,57.5,27.07,70.59-.02,1.09-.18,1.63-.38,2.76-23.07,22.65-49.29,50.56-79.98,62.41,.22-.25,.44-.52,.66-.76,.86-.94,1.72-1.79,2.5-2.83,3.38-4.51,43.17-120.42,44.97-129.34,.32-1.59,.02-2.87-.26-4.43Z"/>
  <path class="cls-12" d="M171.35,1075.33c.55-8.98-.29-20.06-4.19-28.21-10.14-21.19-28.09-40.35-41.26-59.9-7.6-11.04-14.87-22.3-21.82-33.77-6.94-11.47-13.55-23.13-19.81-34.99-6.26-11.85-12.18-23.88-17.74-36.08-5.56-12.2-10.77-24.55-15.61-37.06-1.75-4.64-3.45-9.31-5.09-13.99-1.64-4.68-3.23-9.39-4.75-14.11-1.53-4.72-3-9.46-4.41-14.22-1.41-4.76-2.77-9.53-4.06-14.32-1.3-4.79-2.54-9.6-3.72-14.42-1.18-4.82-2.3-9.65-3.36-14.5-1.06-4.85-2.07-9.71-3.01-14.58-.95-4.87-1.83-9.76-2.66-14.65-.83-4.89-1.6-9.8-2.3-14.71-.71-4.91-1.36-9.83-1.95-14.76-.59-4.93-1.12-9.86-1.59-14.81-.47-4.94-.88-9.89-1.23-14.84-.35-4.95-.64-9.91-.87-14.86-.23-4.96-.4-9.92-.51-14.88-.11-4.96-.16-9.93-.15-14.89,.01-4.96,.08-9.93,.21-14.89,.13-4.96,.32-9.92,.57-14.88,.25-4.96,.56-9.91,.93-14.86,.37-4.95,.8-9.9,1.29-14.83,.49-4.94,1.04-9.87,1.65-14.8,.61-4.93,1.28-9.84,2.01-14.75,.73-4.91,1.52-9.81,2.37-14.7,.85-4.89,1.76-9.77,2.73-14.64,.97-4.87,1.99-9.73,3.08-14.57,1.08-4.84,2.23-9.67,3.43-14.49,1.2-4.82,2.46-9.62,3.78-14.4,1.32-4.79,2.69-9.55,4.13-14.3,1.43-4.75,2.93-9.49,4.47-14.2,1.55-4.72,3.15-9.41,4.82-14.09,1.66-4.68,3.38-9.33,5.16-13.97,1.78-4.64,3.61-9.25,5.49-13.84,1.89-4.59,3.83-9.16,5.83-13.7C128.19,234.96,255.98,117.51,404.78,60.52,577.13-5.48,809.58-8.41,987.9,35.54c15.88,3.97,31.64,8.36,47.28,13.17,15.64,4.81,31.15,10.03,46.52,15.66,15.37,5.63,30.57,11.67,45.62,18.11,15.05,6.44,29.91,13.27,44.59,20.5,20.2,9.98,40.06,20.57,59.6,31.78,19.54,11.21,38.71,23.02,57.52,35.42,18.81,12.56,48.76,37.45,67.39,45.79l1.97-1.36c6.61,37.83,24.53,70.69,56.47,92.94,13.24,9.22,27.87,15.47,43.09,20.6,31.42-10.9,56.01-26.35,74.35-54.8,11.68,9.38,24.33,17.29,35.94,26.92,83.3,69.03,115.83,101.69,224.36,129.34,17.83,4.54,42.01,12.32,59.61,13.56,3.44-1.8,1.68-4.81,5.56-5.38,.7,2.7,1.04,5.12,1.26,7.9,17.41,6.48,46.83,13.71,65.2,16.67-3.88,6.13-14.38,10.33-19.95,15.42-8.36,7.62-20.47,28.03-28.19,32.62-51.42-2.21-132.21,.81-176.49,29.33-2.46-10.15-7.12-19.55-14.59-26.95-21.63-21.44-57.07-16.15-84.84-15.91-.3-23.34,6.51-68.96-9.4-86.54-8.13-8.99-16.83-10.45-28.22-10.78-66.93-1.97-134.46,.01-201.46-.05l-69.54-.04c-13.08,0-27.7-1.09-40.59,1.04-.91,.15-1.81,.33-2.7,.55-.89,.22-1.77,.47-2.65,.76-.87,.29-1.73,.61-2.58,.96-.85,.35-1.68,.74-2.5,1.16-.82,.42-1.62,.87-2.4,1.35-.78,.48-1.54,.99-2.29,1.53-.74,.54-1.46,1.11-2.16,1.71-.7,.6-1.37,1.22-2.02,1.87-17.28,17.44-10.67,62.96-10.12,86.48l-370.22,.86-115.58-.28c-20.04-.05-41.08-1.46-60.95,.61-13.03,1.36-22.53,3.35-32.1,12.7-14.48,14.15-16.78,32.88-16.79,52.17l.08,25.2c-.97,14.96-.91,30-1.07,44.99-.09,45.6,1.19,91.58-.16,137.13l.27,427.92-103.25-3.81c-16.72,16.22-57.17,53.49-80.84,54.12-13.87,5.06-26.84,7.92-41.6,8.58-20.84,.33-38.66-1.58-58.03-9.88l.09-.72-3.28-3.27-.57,.14c-3.59-11.67-4.91-21.7-4.83-33.94,1.81-13.45,5.43-26.34,9.36-39.29l-.65-1.96c-8.98,12.98-6.93,31.68-12.85,45.98-.14-2.58-.29-5.22-.74-7.76-1.7-9.52-16.4-19.31-24-24.63,.32-7.17-.09-14.43-.29-21.61,2.64-1.71,5.25-3.46,7.83-5.24l.13-2.35c-3.58,2.07-7.16,4.12-10.82,6.04l-4.77,.56c-19.27-3.33-37.77-13.02-54.07-23.54-6.59-4.25-16.77-14.62-24.03-15.92-5.81-9.51-13.8-17.51-21.28-25.72-8-6.93-16.38-12.75-25.17-18.6Z"/>
  <path class="cls-13" d="M258.85,645.07c-2.91-5.61-5.19-11.19-6.85-17.3-2.92-10.75-7.58-32.92-1.73-43.1,3.32,21.75,8.61,37.63,22.01,55.43l-12.06,5.05-1.38-.07Z"/>
  <path class="cls-4" d="M546.7,422.06c1.73,.2,3.47,.43,5.15,.88,5.55,1.48,10.62,4.87,13.15,10.15,.26,.55,.49,1.12,.69,1.7,.2,.58,.37,1.17,.5,1.76,.13,.6,.24,1.2,.31,1.81s.11,1.22,.11,1.83c0,.61-.03,1.22-.09,1.83-.06,.61-.16,1.21-.29,1.81-.13,.6-.29,1.19-.48,1.77-.19,.58-.42,1.15-.67,1.71-2.75,6.16-7.66,8.68-13.54,11.18-2.54-.09-5.08-.22-7.51-1.02-4.86-1.6-8.86-4.65-11.09-9.33-2.13-4.47-1.93-9.67-.02-14.19,2.78-6.59,7.63-9.14,13.77-11.89Z"/>
  <path class="cls-29" d="M547.63,432.42c1.5,.49,3.25,.97,4.58,1.8,2.64,1.65,3.11,3.67,3.89,6.49-1.49,4.35-2.32,5.1-5.8,8.18-1.12-.32-2.37-.61-3.4-1.19-3.1-1.73-3.75-2.91-4.95-6.17,.76-4.42,2.51-6.05,5.67-9.11Z"/>
  <path class="cls-22" d="M622.26,240.26c7.18,35.25,23.13,64.63,53.8,84.85,10.1,6.66,20.7,11.43,31.89,15.85,3.25,.92,6.51,1.8,9.79,2.62,31.34,7.75,62.86,1.51,90.23-14.86,26.69-17.03,44.17-41.04,54.17-70.84,.21,1.76,.37,3.52,.51,5.29,.1,1.16,.17,1.59,.18,2.76,.19,20.98-18.15,47.88-32.3,62.05-22.79,22.8-53.58,34.71-85.75,34.3-2.1-.04-4.19-.13-6.29-.27-2.1-.14-4.18-.34-6.27-.58-2.08-.25-4.16-.54-6.23-.89-2.07-.35-4.13-.75-6.18-1.2-2.05-.45-4.09-.95-6.11-1.5-2.02-.55-4.03-1.15-6.03-1.81-2-.65-3.97-1.35-5.94-2.1-1.96-.75-3.9-1.55-5.82-2.39-1.92-.85-3.82-1.74-5.7-2.68-1.88-.94-3.73-1.92-5.56-2.96-1.83-1.03-3.63-2.11-5.41-3.23s-3.52-2.28-5.24-3.49c-1.72-1.21-3.4-2.46-5.06-3.75-1.66-1.29-3.28-2.62-4.87-3.99-1.59-1.37-3.15-2.78-4.67-4.23-1.52-1.45-3.01-2.93-4.45-4.45-21.65-22.76-33.68-51-32.7-82.49Z"/>
  <path class="cls-29" d="M1181.28,129.23c10.61-1.44,22.95,2.17,31.55,8.45,14.02,10.24,19.63,25.24,22.23,41.79,5.69-.11,12.26-.11,17.8,1.36,17.97,4.78,25.18,19.75,33.58,34.6-58.85,.92-117.69-1.58-176.55-.72-28.94,.44-57.88,.69-86.82,.73,.55-9.96,1.43-19.38,6.86-28.03,3.18-5.06,7.67-9.49,13.7-10.78,8.19-1.75,14.7,1.38,21.33,5.68,3.03-11.65,6.06-21.64,15.02-30.15,6.94-6.59,16.13-10.26,25.75-9.64,13.41,.87,22.09,7.83,30.62,17.52,1.9-3.68,3.8-7.46,6.29-10.78,9.85-13.11,22.88-17.92,38.63-20.04Z"/>
  <path class="cls-14" d="M250.28,584.67c.68-33.82,9.3-65.05,34.42-89.14,19.63-18.83,44.34-28.04,71.48-27.09,1.67,.07,3.33,.18,4.99,.34,1.66,.15,3.32,.35,4.97,.58,1.65,.23,3.3,.51,4.94,.82,1.64,.31,3.27,.67,4.89,1.06,1.62,.39,3.23,.83,4.83,1.3,1.6,.47,3.19,.98,4.76,1.53,1.58,.55,3.14,1.14,4.68,1.76,1.55,.63,3.08,1.29,4.59,1.99,1.51,.7,3.01,1.44,4.49,2.21,1.48,.77,2.94,1.58,4.38,2.43,1.44,.85,2.86,1.73,4.25,2.64,1.4,.91,2.77,1.86,4.12,2.84,1.35,.98,2.67,2,3.97,3.04,1.3,1.05,2.58,2.12,3.82,3.23s2.47,2.25,3.66,3.41c1.19,1.17,2.35,2.36,3.49,3.59,19.79,21.41,29.6,50.47,28.44,79.48-.62,15.44-4.73,29.36-11.12,43.32-7.45,12.7-15.66,24.26-27.06,33.73-19.66,15.56-41.86,24.97-67.27,23.87-33.13-1.44-56.23-17.77-77.72-41.56-13.41-17.8-18.69-33.68-22.01-55.43Z"/>
  <path class="cls-9" d="M352.76,643.83c-9.98-5.87-19.75-11.76-28.55-19.36-9.92-8.57-23.8-23.53-24.9-37.31l1.99-2.12c12.3,23.77,29.03,35.9,52.24,48.28,20.94-11.39,39.63-23.83,52.4-44.5l2.16,3.1c-.27,1.85-.59,3.72-1.22,5.48-6.73,18.57-36.54,38.65-54.11,46.42Z"/>
  <path class="cls-29" d="M354.7,545.53c6.47-8.96,13.58-15.09,24.88-16.76,7.09-1.05,14.15,.64,19.8,5.09,7.4,5.84,11.42,15.29,12.25,24.52,.96,10.75-1.74,20.53-5.69,30.44-12.77,20.67-31.46,33.11-52.4,44.5-23.21-12.37-39.94-24.51-52.24-48.28-4.75-13.24-7.82-25.73-1.5-39.17,3.4-7.23,9.26-13.35,17.03-15.74,8.62-2.65,18.47-.16,26.03,4.43,4.85,2.95,8.28,6.66,11.83,10.97Z"/>
  <path class="cls-29" d="M407.89,194.35c23.63-1.24,42.58,.83,62.83,14.29,24.52,16.3,35.85,37.79,41.34,66,4.62-1.01,9.16-1.73,13.89-2.02,14.57-.88,28.58,3,39.51,12.97,14.27,13.02,18.06,29.83,19.08,48.38l-285.46-.8c-49.71-.14-99.45,1.31-149.15,.76,1.75-14.28,4.51-27.07,14.01-38.38,7.07-8.42,17.21-14.8,28.42-15.31,13.05-.59,21.7,5.32,30.95,13.5,4.07-16.17,9.36-31.65,20.79-44.2,.72-.78,1.45-1.54,2.21-2.29,.75-.74,1.53-1.47,2.32-2.17,.79-.71,1.6-1.39,2.42-2.06,.82-.67,1.66-1.31,2.52-1.93,.86-.62,1.73-1.23,2.61-1.81,.88-.58,1.78-1.14,2.7-1.68,.91-.54,1.84-1.05,2.78-1.54,.94-.49,1.89-.96,2.85-1.4,.96-.44,1.93-.86,2.92-1.26,.98-.4,1.97-.77,2.98-1.12,1-.35,2.01-.67,3.03-.97,1.02-.3,2.04-.57,3.07-.82,1.03-.25,2.07-.47,3.11-.67,1.04-.2,2.09-.37,3.14-.51,1.05-.15,2.1-.26,3.16-.36,1.05-.09,2.11-.16,3.17-.2,19.52-.74,34.87,7.29,48.95,20.12,1.84-3.78,3.77-7.48,6.07-10.99,14.32-21.91,38.28-38.33,63.81-43.54Z"/>
  <path class="cls-8" d="M622.26,240.26c-1.89-38.09,3.65-70.46,30.05-99.81,21.72-24.15,53.32-39.77,85.87-41.18,2.02-.07,4.05-.09,6.07-.06,2.02,.03,4.05,.11,6.07,.24,2.02,.13,4.04,.31,6.05,.54,2.01,.23,4.02,.51,6.01,.85,2,.33,3.99,.71,5.96,1.14,1.98,.43,3.95,.91,5.9,1.44,1.96,.53,3.9,1.11,5.82,1.73,1.93,.63,3.84,1.3,5.73,2.02s3.77,1.49,5.62,2.3c1.85,.81,3.69,1.67,5.5,2.58,1.81,.91,3.6,1.85,5.37,2.85,1.76,.99,3.5,2.03,5.22,3.11,1.71,1.08,3.4,2.2,5.05,3.37,1.66,1.16,3.28,2.37,4.88,3.61,1.6,1.25,3.16,2.53,4.7,3.85,1.53,1.32,3.03,2.68,4.5,4.08,23.89,22.34,39.42,53.68,40.35,86.57,.1,3.24,.07,6.47-.09,9.71-.15,3.23-.43,6.46-.84,9.67-.41,3.21-.93,6.4-1.59,9.58-.65,3.17-1.43,6.31-2.32,9.43-10,29.81-27.48,53.82-54.17,70.84-27.37,16.37-58.89,22.62-90.23,14.86-3.28-.82-6.54-1.69-9.79-2.62-11.19-4.43-21.79-9.2-31.89-15.85-30.67-20.22-46.61-49.6-53.8-84.85Z"/>
  <path class="cls-4" d="M707.95,340.97c13.38-10.21,60.63-19.9,77.48-18.16,8.58,.88,14.06,6.31,22.54,5.91-27.37,16.37-58.89,22.62-90.23,14.86-3.28-.82-6.54-1.69-9.79-2.62Z"/>
  <path class="cls-29" d="M735.92,159.61c6.51-.63,12.61-.71,18.86,1.7,.98,.37,1.95,.79,2.89,1.26,.94,.47,1.86,.98,2.75,1.54,.89,.56,1.75,1.16,2.59,1.81,.83,.65,1.63,1.33,2.39,2.06,.76,.73,1.49,1.49,2.18,2.29,.69,.8,1.33,1.63,1.94,2.49,.6,.86,1.16,1.75,1.68,2.67,.52,.92,.98,1.86,1.41,2.82,.22,.51,.43,1.02,.63,1.54,.2,.52,.38,1.04,.55,1.57,.17,.53,.32,1.06,.46,1.6,.14,.54,.27,1.07,.38,1.62,.11,.54,.21,1.09,.29,1.64,.08,.55,.15,1.1,.21,1.65,.05,.55,.09,1.1,.12,1.66,.03,.55,.04,1.11,.03,1.66,0,.55-.02,1.11-.06,1.66-.03,.55-.08,1.11-.15,1.66-.06,.55-.14,1.1-.23,1.64-.09,.55-.2,1.09-.32,1.63-.12,.54-.25,1.08-.4,1.61-.15,.53-.31,1.06-.49,1.59-.18,.52-.37,1.04-.57,1.56-.2,.51-.42,1.02-.65,1.53-4.79,10.41-12.99,15.8-23.21,19.74-6.18,.72-11.18,.44-17.07-1.75-8.52-3.17-15.02-9.1-18.63-17.5-.44-1.03-.82-2.08-1.15-3.15-.33-1.07-.61-2.15-.83-3.25-.22-1.1-.39-2.21-.5-3.32-.11-1.11-.16-2.23-.16-3.35s.06-2.24,.18-3.35,.29-2.22,.51-3.32c.23-1.1,.51-2.18,.85-3.25,.34-1.07,.73-2.12,1.17-3.15,4.61-10.56,12.15-14.96,22.38-18.78Z"/>
  <path class="cls-29" d="M717.28,230.42c9.56-.8,19.41-.76,29.01-.83,15.46-.13,31.21,1.42,42.65,13.02,11.62,11.79,12.25,26.3,11.98,41.93l-31.76-.04c-16.32-.11-32.63-.11-48.95-.02-11.29,.14-23.51,1.46-34.61-.39-2.32-1.94-3.43-2.64-4.31-5.66-1.82-6.26,2.68-15.97,5.54-21.53,6.96-13.57,15.98-21.74,30.45-26.48Z"/>
  <path class="cls-10" d="M444.33,624.04c32.73,.39,65.12-.86,97.87,1.25,27.54,1.78,55.22,6.93,82.72,7.83-.09,45.6,1.19,91.58-.16,137.13l.27,427.92-103.25-3.81c-16.72,16.22-57.17,53.49-80.84,54.12-13.87,5.06-26.84,7.92-41.6,8.58-20.84,.33-38.66-1.58-58.03-9.88l.09-.72-3.28-3.27-.57,.14c-3.59-11.67-4.91-21.7-4.83-33.94,1.81-13.45,5.43-26.34,9.36-39.29l-.65-1.96c-8.98,12.98-6.93,31.68-12.85,45.98-.14-2.58-.29-5.22-.74-7.76-1.7-9.52-16.4-19.31-24-24.63,.32-7.17-.09-14.43-.29-21.61,2.64-1.71,5.25-3.46,7.83-5.24l.13-2.35c-3.58,2.07-7.16,4.12-10.82,6.04l-4.77,.56c-19.27-3.33-37.77-13.02-54.07-23.54-6.59-4.25-16.77-14.62-24.03-15.92-5.81-9.51-13.8-17.51-21.28-25.72-4.8-10.62-10.91-20.58-15.53-31.37-12.11-28.29-14.57-58.04-15.02-88.41-2.13-15.59-9.06-31.35-12.47-46.93-10.22-46.71-11.86-99.62-2.1-146.54,9.67-46.49,32.23-86.2,71.58-113.77,11.31-7.93,23.72-13.77,35.15-21.35l.73-.49,1.38,.07,12.06-5.05c21.49,23.79,44.58,40.12,77.72,41.56,25.41,1.1,47.62-8.31,67.27-23.87,11.4-9.47,19.61-21.04,27.06-33.73Z"/>
  <path class="cls-29" d="M442.36,808.42c2.69,.21,5.73,.31,8,1.92,6.02,4.27,6.69,16.51,8.23,23.42,6.16,1.87,14.84,2.46,20.16,6.21,2.85,2,3.15,3.59,3.77,6.86-3.84,10.16-17.4,7.09-24.24,14.19-4.28,4.44-3.39,15.17-8.93,22.18-2.91,.12-6.08-.37-8.39-2.31-5.54-4.63-5.22-15.22-5.76-21.76-6.77-1.28-16.64-2.67-21.47-7.93-2.45-2.67-2.32-4.13-1.91-7.55,5.44-7.66,13.51-8.04,22.12-9.77,1.04-10.17,1.09-17.65,8.42-25.47Z"/>
  <path class="cls-20" d="M272.29,640.09c21.49,23.79,44.58,40.12,77.72,41.56,25.41,1.1,47.62-8.31,67.27-23.87,4.57,1.45,9.31,3.33,14.03,4.12-.01,.42,0,.84-.03,1.26-.66,9.64-9.7,20.23-16.92,26.16-19.71,16.19-46,22.43-71.05,19.66-27.15-3.01-53.5-16.59-70.44-38.3-5.32-6.81-13.71-16.56-12.63-25.54l12.06-5.05Z"/>
  <path class="cls-22" d="M444.33,624.04c32.73,.39,65.12-.86,97.87,1.25,27.54,1.78,55.22,6.93,82.72,7.83-.09,45.6,1.19,91.58-.16,137.13-17.57-10.77-33.51-24.23-50.66-35.7-44.3-29.63-92.28-55.49-142.8-72.65-4.72-.8-9.47-2.67-14.03-4.12,11.4-9.47,19.61-21.04,27.06-33.73Z"/>
  <path class="cls-6" d="M390.11,1104.97c7.46-7.9,18.2-14.11,27.91-18.78,40.81-19.66,87.37-21.91,131.9-20.15,11.19,.44,24.71,.22,35.31,4l-.42,1.71c-9.8,38.14-39.55,91.3-63.03,122.61-16.72,16.22-57.17,53.49-80.84,54.12-13.87,5.06-26.84,7.92-41.6,8.58-20.84,.33-38.66-1.58-58.03-9.88l.09-.72-3.28-3.27-.57,.14c-3.59-11.67-4.91-21.7-4.83-33.94,1.81-13.45,5.43-26.34,9.36-39.29,11.73-25.1,26.45-47.44,48.03-65.11Z"/>
  <path class="cls-28" d="M365.58,1207.77c.11-.9,.23-1.8,.36-2.7,2.2-14.8,15.94-89.3,24.79-95.78-2.08,15.11-6.63,30.11-10.22,44.94-3.88,16.26-7.23,32.64-10.06,49.12,14.06-13.54,28.24-26.36,43.82-38.13l2.19,4.42c-23.54,18.92-44.83,38.95-64.55,61.85,26.82,5.12,53.68,10.03,80.32,16.08,3.35-.58,5.48-.02,8.71,.93-13.87,5.06-26.84,7.92-41.6,8.58-20.84,.33-38.66-1.58-58.03-9.88l.09-.72-3.28-3.27c6.22-13.38,17.57-24.68,27.45-35.41Z"/>
  <path class="cls-6" d="M349.45,1234.88c16.97,3.94,67.77,16.22,82.78,12.67,3.35-.58,5.48-.02,8.71,.93-13.87,5.06-26.84,7.92-41.6,8.58-20.84,.33-38.66-1.58-58.03-9.88l.09-.72c2.85-3.79,5.52-7.56,8.04-11.58Z"/>
  <path class="cls-6" d="M390.11,1104.97l1.29,2.82-.67,1.5c-8.86,6.48-22.59,80.98-24.79,95.78-.13,.9-.25,1.8-.36,2.7-9.88,10.73-21.24,22.03-27.45,35.41l-.57,.14c-3.59-11.67-4.91-21.7-4.83-33.94,1.81-13.45,5.43-26.34,9.36-39.29,11.73-25.1,26.45-47.44,48.03-65.11Z"/>
  <path class="cls-6" d="M390.11,1104.97c7.46-7.9,18.2-14.11,27.91-18.78,40.81-19.66,87.37-21.91,131.9-20.15,11.19,.44,24.71,.22,35.31,4l-.42,1.71c-58.84,27.71-116.17,58.76-168.35,97.87l-2.19-4.42c-15.59,11.77-29.76,24.59-43.82,38.13,2.83-16.48,6.18-32.85,10.06-49.12,3.59-14.82,8.14-29.82,10.22-44.94l.67-1.5-1.29-2.82Z"/>
  <path class="cls-7" d="M428.83,1153.77c32.39-18.91,126.07-82.08,156.41-83.73l-.42,1.71c-58.84,27.71-116.17,58.76-168.35,97.87l-2.19-4.42,7.94-6.51c9.29-26.38,18.31-57.12,33.91-80.28-7.27,25.29-18.46,50.44-27.3,75.35Z"/>
  <path class="cls-6" d="M210.2,810.02c33.53,5.59,93.09,68.52,113.06,96.39,31.17,43.5,53.05,99.36,44.29,153.44-6.67,41.14-27.15,64.94-56.06,92.67-3.58,2.07-7.16,4.12-10.82,6.04l-4.77,.56c-19.27-3.33-37.77-13.02-54.07-23.54-6.59-4.25-16.77-14.62-24.03-15.92-5.81-9.51-13.8-17.51-21.28-25.72-4.8-10.62-10.91-20.58-15.53-31.37-12.11-28.29-14.57-58.04-15.02-88.41-.01-33.25,26.03-135.28,44.24-164.12Z"/>
  <path class="cls-28" d="M289.77,1083.34l2.91,6.61-.1-.08,1.83-4.68,.64,1.39c14.08-23.04,42.44-70.49,59.48-88.73-10.2,27.21-29.75,52.2-45.65,76.45-4.81,7.33-11.38,15.65-14.64,23.73-1.05,2.6-.66,5.43-.34,8.14,2.8,17.43,4.55,34.91,6.77,52.4l-4.77,.56c-2.16-15.21-4.23-30.43-6.21-45.66l-2.71-19.69c-17.49-12.65-33.93-26.82-51-40.04-18.82-14.57-38.42-28.41-56.71-43.61,19.29,5.65,87.16,60.64,105.53,76.07,1.91-.73,3.01-1.61,4.66-2.74,.09-.06,.2-.07,.31-.11Z"/>
  <path class="cls-28" d="M210.48,811.25c15.52,12.49,55.6,161.42,63.03,189.02,13.23-27.54,29.61-69.48,48.71-92.05-6.93,22.27-33.95,76.71-47.04,96.99,2.95,14.49,16.38,68.79,14.59,78.13-.1,.04-.22,.04-.31,.11-1.65,1.13-2.75,2.02-4.66,2.74,.82-16.89-13.83-76.7-19.34-94.03-15.48-8.56-77.78-54.44-90.09-67.15,31.06,17.17,59.3,39.61,88.44,59.84-8.87-35.26-18.9-70.18-30.11-104.77-7.5-22.98-16.62-45.58-23.22-68.83Z"/>
  <path class="cls-17" d="M210.2,810.02c33.53,5.59,93.09,68.52,113.06,96.39,31.17,43.5,53.05,99.36,44.29,153.44-6.67,41.14-27.15,64.94-56.06,92.67-3.58,2.07-7.16,4.12-10.82,6.04-2.22-17.5-3.97-34.98-6.77-52.4-.32-2.71-.7-5.54,.34-8.14,3.26-8.08,9.84-16.4,14.64-23.73,15.9-24.25,35.45-49.24,45.65-76.45-17.04,18.24-45.4,65.69-59.48,88.73l-.64-1.39-1.83,4.68,.1,.08-2.91-6.61c1.79-9.34-11.64-63.64-14.59-78.13,13.08-20.28,40.1-74.72,47.04-96.99-19.1,22.58-35.48,64.51-48.71,92.05-7.43-27.6-47.51-176.53-63.03-189.02l-.27-1.23Z"/>
  <path class="cls-29" d="M1221.56,496.87c-.55-23.52-7.16-69.04,10.12-86.48,.65-.65,1.32-1.27,2.02-1.87,.7-.6,1.42-1.17,2.16-1.71,.74-.54,1.51-1.05,2.29-1.53,.78-.48,1.58-.93,2.4-1.35,.82-.42,1.65-.81,2.5-1.16,.85-.35,1.71-.68,2.58-.96,.87-.29,1.76-.54,2.65-.76,.89-.22,1.79-.4,2.7-.55,12.89-2.13,27.51-1.03,40.59-1.04l69.54,.04c66.99,.06,134.52-1.92,201.46,.05,11.39,.34,20.09,1.8,28.22,10.78,15.91,17.58,9.09,63.2,9.4,86.54,27.76-.24,63.21-5.54,84.84,15.91,7.47,7.41,12.13,16.8,14.59,26.95,1.92,30.09,.66,60.87,.67,91.03l.02,167.77c0,24.61-1.58,50.45,.17,74.94-1.36,46.88-.36,93.99-.34,140.91l.14,264.37-.17,99.81c.02,17.69,1.59,36.82-.52,54.36-1.55,12.93-6.02,26.12-15.65,35.28-.96,.9-1.94,1.76-2.96,2.59-1.02,.83-2.06,1.62-3.13,2.38-1.07,.76-2.17,1.47-3.29,2.15-1.12,.68-2.26,1.32-3.43,1.92-1.16,.6-2.35,1.16-3.55,1.68-1.21,.52-2.43,.99-3.66,1.42-1.24,.43-2.49,.82-3.75,1.16-1.26,.35-2.54,.65-3.82,.9-21.81,4.34-51.01,1.51-73.71,1.49l-134.83-.02c-8.24-.08-34.25-2.3-40.83,.92-24.48,25.47-52.77,47.28-82,67-14.5,9.78-57.66,30.4-65.96,40.77l-606.9-.22-185.04-.12c-32.87,.02-67.07,1.87-99.77-.74,25.54-6.5,47.57-18.98,64.97-38.99,22.24-25.58,33.79-58.08,31.21-92-2.65-34.86-17.4-61.56-43.54-84.12,.54-.37,1.08-.76,1.62-1.12,1.96-1.32,4.01-2.53,5.78-4.12,3.78-3.39,7.57-8.9,7.8-14.15,.16-3.63-1.58-6.99-4.04-9.55-8.84-9.22-20.11-8.27-31.68-8.14,1.92-26.93,.16-55.19-.06-82.24,14.76-.66,27.73-3.52,41.6-8.58,23.67-.62,64.11-37.9,80.84-54.12l103.25,3.81-.27-427.92c1.35-45.55,.07-91.53,.16-137.13,.16-14.99,.1-30.02,1.07-44.99l-.08-25.2c0-19.29,2.31-38.02,16.79-52.17,9.57-9.35,19.07-11.34,32.1-12.7,19.87-2.07,40.92-.67,60.95-.61l115.58,.28,370.22-.86Z"/>
  <path class="cls-12" d="M962.41,1273c16.27-.59,92.08-2.73,102.87,.24,3.42,.94,4.33,2.73,5.98,5.64-.11,4.13-1.01,5.71-3.5,8.96-9.67,1.29-98.25,2.5-104.38-.38-1.65-.78-2.38-1.89-2.99-3.57-1.38-3.8,.33-7.53,2.02-10.89Z"/>
  <path class="cls-12" d="M963.95,1223.61c17.88-.07,90.62-2.93,101.96,1.33,3.24,1.22,4.09,3.02,5.56,5.95-.43,4.18-2.31,6.19-4.92,9.37-14.33,.87-92.83,2.33-101.27-.49-3.5-1.17-4.28-3.26-5.63-6.4,.37-4.36,1.7-6.31,4.3-9.76Z"/>
  <path class="cls-12" d="M1043.09,767.83c21.5-.69,145.81-2.9,158.9,.85,2.97,.85,3.07,2.18,4.32,4.77,.01,4.19-.57,6.43-2.78,9.99-33.96,2.12-68.82,.47-102.9,.36-16.62-.05-36.45,1.96-52.78-.49-3.81-.57-3.72-.62-6.12-3.76-.66-4.47,0-7.45,1.36-11.72Z"/>
  <path class="cls-12" d="M959.6,1022.19c1.67-.23,3.37-.44,5.05-.53,27.05-1.34,55.1,.45,82.27,.48,33.96,.04,68.77-1.54,102.65,.39,3.22,.18,6.33,.1,8.87,2.34,1.53,3.57,.41,6.59-.4,10.26-.86,.1-1.73,.22-2.6,.28-29.9,2.13-61.46,.24-91.52,.29-32.28,.05-65.94,2.1-98.01-.25-2.67-.2-3.86-.45-5.86-2.15-1.77-3.92-1.06-6.96-.46-11.12Z"/>
  <path class="cls-12" d="M1272.16,767.78l195.73-.31c32.97-.09,66.75-1.69,99.65-.03,3.7,.19,6.45,.27,9.6,2.42,1.55,2.82,2.87,4.9,2.02,8.32-.79,3.15-2.61,4.19-5.26,5.58-69.11-.82-138.3-.55-207.42-.25-27.56,.12-55.72,2.45-83.2,1.22-4.6-.21-12.16-.48-15.67-3.74-2.04-1.9-1.9-2.57-1.99-5.15,1.94-3.33,3.61-5.54,6.54-8.05Z"/>
  <path class="cls-12" d="M1212.85,1021.3c87.41,2.08,175.01,.73,262.44,.86,29.68,.05,60.28-1.77,89.83-.4,5.22,.24,9.75,.53,14.23,3.52,1.06,2.45,1.42,2.97,.15,5.57-1.61,3.31-3.47,3.86-6.79,4.82l-260.86-.2-62.35,.3c-11.7,.15-23.53,1.92-35.09-.27-5.67-1.07-7.72-2.23-10.95-6.93l.88-2.56c2.77-1.99,5.36-3.43,8.52-4.72Z"/>
  <path class="cls-12" d="M1220.78,522.38c.06,.28,.13,.56,.18,.85,6.07,31.6-11.38,71.99,20.55,94.37,5.43,3.81,11.34,6.31,17.99,6.95,18.15,1.74,37.51,.45,55.78,.44l108.11-.12,96.18,.04c15.8,0,34.66,1.77,50.1-1.27,9.28-1.83,18.04-9.54,22.95-17.38,2.72-4.35,4.84-8.94,6.65-13.73,.21,2.39,.38,4.79,.33,7.19-.22,10.76-5.48,21.89-13.29,29.2-3.8,3.56-9.35,7.43-14.49,8.36-14.04,2.54-29.75,1.55-44.07,1.75-27.5,.46-55,.67-82.5,.64l-118.82-.05c-20.8-.02-41.98,.74-62.74-.28-13.68-.67-26.1-6.09-35.17-16.52-5.1-5.87-7.22-13.87-8.32-21.43-2.42-16.66-.63-60.79,.58-78.99Z"/>
  <path class="cls-20" d="M824.96,921.27c14.2-.11,27.98,3.9,39.61,12.16,.87,.62,1.73,1.26,2.58,1.92s1.67,1.34,2.48,2.04c.81,.7,1.6,1.42,2.38,2.16,.77,.74,1.53,1.5,2.27,2.27,.74,.78,1.45,1.57,2.15,2.38,.7,.81,1.38,1.64,2.04,2.48,.66,.84,1.29,1.7,1.91,2.58,.62,.87,1.21,1.76,1.78,2.67,.57,.9,1.12,1.82,1.65,2.75,.53,.93,1.03,1.87,1.51,2.83,.48,.96,.94,1.92,1.37,2.9,.43,.98,.85,1.97,1.23,2.97,.39,1,.75,2.01,1.08,3.02,.34,1.02,.65,2.04,.93,3.07s.55,2.07,.78,3.11c.24,1.04,.45,2.09,.63,3.15,.18,1.08,.33,2.16,.46,3.25,.13,1.09,.23,2.18,.3,3.27,.07,1.09,.12,2.18,.14,3.28,.02,1.09,.01,2.19-.02,3.28-.04,1.09-.1,2.19-.19,3.28-.09,1.09-.21,2.18-.35,3.26-.14,1.09-.31,2.17-.51,3.24-.2,1.08-.42,2.15-.67,3.21-.25,1.07-.53,2.12-.83,3.17-.3,1.05-.63,2.09-.99,3.13-.35,1.04-.73,2.06-1.14,3.08-.41,1.02-.84,2.02-1.29,3.01-.45,.99-.93,1.98-1.44,2.95-.5,.97-1.03,1.93-1.58,2.87-.55,.95-1.12,1.88-1.72,2.79-.6,.92-1.22,1.82-1.86,2.7-12.86,17.89-29.81,25.49-50.99,28.76-16.22-.46-31.31-4.02-44.45-13.93-.88-.66-1.74-1.34-2.59-2.05-.85-.7-1.67-1.43-2.48-2.17-.81-.75-1.6-1.51-2.37-2.3s-1.52-1.59-2.25-2.41c-.73-.82-1.44-1.67-2.13-2.52s-1.35-1.73-2-2.63-1.27-1.8-1.86-2.72c-.6-.92-1.17-1.86-1.73-2.81-.55-.95-1.08-1.92-1.58-2.9-.5-.98-.98-1.97-1.43-2.97-.45-1-.88-2.02-1.28-3.04-.4-1.02-.78-2.06-1.13-3.1-.35-1.04-.67-2.09-.97-3.15-.3-1.06-.57-2.13-.81-3.2-.24-1.07-.46-2.15-.65-3.24-.19-1.08-.35-2.17-.49-3.26-.13-1.06-.23-2.12-.3-3.18-.07-1.06-.12-2.12-.15-3.19-.02-1.06-.02-2.13,.01-3.19,.03-1.06,.09-2.13,.17-3.19,.08-1.06,.19-2.12,.33-3.18,.13-1.06,.3-2.11,.48-3.16,.19-1.05,.4-2.09,.64-3.13,.24-1.04,.5-2.07,.79-3.1,.29-1.02,.6-2.04,.94-3.05,.34-1.01,.7-2.01,1.09-3,.39-.99,.8-1.97,1.24-2.95,.44-.97,.9-1.93,1.38-2.88,.48-.95,.99-1.89,1.52-2.81,.53-.92,1.08-1.83,1.66-2.73,.58-.9,1.17-1.78,1.79-2.64,.62-.87,1.26-1.72,1.92-2.55,13.4-16.97,32.09-24.18,52.99-26.66Z"/>
  <path class="cls-29" d="M854.2,961.96l10.39,11.63c-16.57,15.34-32.13,31.83-47.92,47.97l-16.65-17.1-12.57-12.26,9.95-9.77,18.77,17.31c12.45-12.86,24.85-25.67,38.04-37.78Z"/>
  <path class="cls-27" d="M810.09,1189.08c15.78-1.34,29.64-.42,43.93,7.1,.99,.52,1.96,1.06,2.92,1.63,.96,.57,1.91,1.16,2.84,1.77,.93,.61,1.85,1.25,2.75,1.91,.9,.66,1.78,1.34,2.65,2.05s1.71,1.43,2.54,2.18c.83,.75,1.64,1.52,2.43,2.31,.79,.79,1.56,1.6,2.31,2.42,.75,.83,1.48,1.67,2.18,2.54,.71,.86,1.39,1.74,2.06,2.64,.66,.9,1.3,1.81,1.92,2.74,.62,.93,1.21,1.88,1.78,2.84,.57,.96,1.11,1.94,1.64,2.92,.52,.99,1.02,1.99,1.49,3,.47,1.01,.91,2.04,1.33,3.07,.42,1.03,.81,2.08,1.18,3.13,.37,1.05,.71,2.12,1.02,3.19,.32,1.04,.61,2.09,.87,3.14,.27,1.05,.5,2.11,.72,3.18,.21,1.07,.4,2.14,.56,3.21,.16,1.07,.29,2.15,.4,3.23,.11,1.08,.19,2.16,.24,3.25,.05,1.08,.08,2.17,.08,3.26s-.03,2.17-.08,3.26c-.05,1.09-.13,2.17-.24,3.25-.11,1.08-.24,2.16-.4,3.23s-.35,2.14-.56,3.21c-.21,1.07-.45,2.12-.72,3.18-.26,1.05-.55,2.1-.87,3.14-.32,1.04-.66,2.07-1.02,3.09-.37,1.02-.76,2.04-1.18,3.04-.42,1-.86,1.99-1.32,2.98-.47,.98-.95,1.95-1.47,2.91-10,18.36-26.75,29.03-46.32,34.86-15.9,1.37-29.77-.09-44.04-7.8-15.98-8.62-29.17-23.43-34.14-41.08-4.78-16.99-1.75-35.9,6.87-51.16,10.23-18.12,26.07-27.52,45.68-32.82Z"/>
  <path class="cls-29" d="M851.24,1221.73c4.88,3.4,8.81,7.57,12.93,11.82-17.76,16.76-34.5,34.66-51.49,52.2l-9.48-10.21-14.27-13.76c3.39-4.08,7.25-7.79,10.95-11.59,4.93,3.42,9.09,7.86,13.35,12.07l38.01-40.53Z"/>
  <path class="cls-13" d="M1049.38,694.36c43.4-1.71,87.42-.37,130.88-.22l216.21,.14,124.86,.09c12.84,.04,30.74-2.68,42.96,.57,4.19,1.11,7.84,3.25,9.91,7.2,1.97,3.77,2.49,8.48,1.04,12.52-1.76,4.9-5.33,7.44-9.85,9.55-40.59,.93-81.39,.2-122,.24l-237.62,.14-107.94-.07c-14.81-.04-32.76,1.79-47.19-.74-4.07-.71-7.99-3.08-10.17-6.65-2.17-3.55-2.45-7.7-1.35-11.66,1.64-5.9,5.15-8.22,10.28-11.09Z"/>
  <path class="cls-13" d="M968.37,947.74c37.21-2.07,75.55-.22,112.91-.21l224.49,.1,118.46-.08c19.2-.07,41.15-2.29,59.98,.62,5.02,.78,8.51,2.33,11.36,6.72,2.59,3.98,4.2,9.65,2.83,14.33-1.5,5.11-5.85,7.77-10.14,10.34-46.36,1.05-92.87,.32-139.25,.3l-213.41,.18-110.59-.09c-17.9-.02-37.95,1.69-55.6-.93-4.27-.63-7.98-2.57-10.38-6.26-2.63-4.04-2.64-9.43-1.37-13.93,1.72-6.11,5.45-8.24,10.7-11.11Z"/>
  <path class="cls-12" d="M743.64,828.05c-6.24-3.93-12.12-7.47-13.76-15.26-2.73-12.98-2.72-158.18-.67-176.06,.17-1.44,.43-2.86,.77-4.26,.34-1.41,.77-2.78,1.28-4.14,.51-1.35,1.1-2.67,1.78-3.95,.67-1.28,1.42-2.52,2.24-3.71,3.76-5.45,9.56-9.76,16.16-10.87,26.64-4.49,82.84,.23,112.54,.2,29.32-.03,68.82-3.7,96.53-.84,4.9,.5,9.75,3.34,13.64,6.24,7.09,5.29,8.02,13.28,9.12,21.6,3.05,23.18,.85,49.43,.79,72.92-.09,31.3,1.45,63.91-.98,95.07-.46,5.92-.96,14.22-4.53,19.11-11.59,6.63-75.35,7.31-89.22,3.72-36.73-.75-73.59-.07-110.34-.03-11.75,.2-23.61,.77-35.35,.26Z"/>
  <path class="cls-11" d="M847.31,736.62c8.72,.79,16.99,1.04,25.52-1.24,0,6.77-.36,13.78,.33,20.5-1.55,.93-3.1,1.6-4.83,2.17-7.1,2.34-14.42,1.04-21.04-2.07,.56-6.59,.49-12.77,.01-19.36Z"/>
  <path class="cls-15" d="M811.97,697.92c.7-15.63-3.88-31.7,.15-47.06,2.51-9.57,8.48-17.84,17.2-22.63,13.13-7.23,31.33-6.59,45.05-1.51,5.53,2.05,12.52,5.67,18.4,6.15,6.46,.53,14.73-3.76,20.78-1.96,.49,1.41,1.01,2.78,1.1,4.29,.45,7.52-6.62,17.17-10.96,22.8-.1,9.95,.28,20.11-1.77,29.88-3.05-1.9-4.15-1.92-5.03-5.7-1.45-6.2-1.15-12.77-2.4-19.04-19.83,2.78-36.61-1.59-54.87-9.15-9.67,10.11-12.34,20.86-19.17,32.44-2.39,4.06-5.48,6.62-7.37,11.14l-1.12,.33Z"/>
  <path class="cls-18" d="M839.62,654c18.26,7.57,35.04,11.93,54.87,9.15,1.25,6.27,.95,12.84,2.4,19.04,.89,3.79,1.98,3.81,5.03,5.7,1.63,9.89-4.42,21.99-10.07,29.89-5.18,7.23-11.33,13.07-19.02,17.6-8.54,2.28-16.8,2.04-25.52,1.24-.26-.19-.52-.37-.77-.56-.42-.32-.83-.66-1.25-.99-2.7-2.11-32.9-36.28-33.32-37.15l1.12-.33c1.89-4.52,4.98-7.09,7.37-11.14,6.83-11.58,9.5-22.33,19.17-32.44Z"/>
  <path class="cls-24" d="M824.53,757.96c8.01-1.98,14.55-3.1,22.77-1.98,6.61,3.11,13.94,4.41,21.04,2.07,1.72-.57,3.28-1.24,4.83-2.17,5.5-.28,10.4,.64,15.76,1.69,19,5.38,34.38,14,44.26,31.76,6.73,12.1,8.97,24.87,9.84,38.52-17.86-.12-35.82-.63-53.67-.04-36.73-.75-73.59-.07-110.34-.03,.23-15.18,2.38-30.33,10.18-43.62,8.14-13.87,19.96-22.13,35.36-26.21Z"/>
  <path class="cls-3" d="M824.53,757.96c8.01-1.98,14.55-3.1,22.77-1.98,6.61,3.11,13.94,4.41,21.04,2.07,1.72-.57,3.28-1.24,4.83-2.17,5.5-.28,10.4,.64,15.76,1.69-4.83,6.82-14.22,9.43-22.16,10.71-11.06,1.78-27.36,1.65-36.85-5-2.17-1.52-3.74-3.28-5.37-5.33Z"/>
  <path class="cls-20" d="M1143.96,1176.09c97.83,.89,195.74-.74,293.59-.33,37.92,.16,77.05-1.72,114.83,.69,4.24,.27,9.63,.28,13.19,2.85,5,3.61,7.32,9.35,8.18,15.28,1.75,12.11-.26,26.02-.23,38.37,.06,29,2.64,65.75-.02,93.69-.48,5.05-1.44,10.2-4.73,14.23-3.52,4.32-8.01,6.01-13.36,6.79l-295.7-.51c-36.16-.2-76.87,2.6-112.4,0-5.87-.43-13.26-1.56-18.04-5.17-4.4-3.32-7.74-9.13-8.43-14.57-2.44-19.3-.55-40.98-.53-60.49,.02-23.54-1.89-49.16,.88-72.48,.42-3.53,1.13-6.67,3.41-9.47,5.15-6.3,11.67-8.08,19.38-8.88Z"/>
  <path class="cls-29" d="M1209,1236.9c18.12-.56,168.03-1.77,174.26,1.91,1.56,4.07,.84,5.54,.02,9.74-20.93,.12-165.09,2.72-173.97-2.56-1.55-3.91-1.03-5.04-.3-9.08Z"/>
  <path class="cls-29" d="M1281.16,1269.47c23.99-.03,171.3-2.36,184.67,1.47,2.94,.84,3.16,1.18,4.45,3.74l-1.83,2.81c-11.06,7.03-53.5,3.6-68.64,3.53-23.33-.04-176.15,2.35-187.82-1.65-2.59-.89-2.89-1.22-3.96-3.56l1.9-2.83c11.17-6.59,56.11-3.47,71.23-3.52Z"/>
  <path class="cls-20" d="M1221.56,496.87c-.55-23.52-7.16-69.04,10.12-86.48,.65-.65,1.32-1.27,2.02-1.87,.7-.6,1.42-1.17,2.16-1.71,.74-.54,1.51-1.05,2.29-1.53,.78-.48,1.58-.93,2.4-1.35,.82-.42,1.65-.81,2.5-1.16,.85-.35,1.71-.68,2.58-.96,.87-.29,1.76-.54,2.65-.76,.89-.22,1.79-.4,2.7-.55,12.89-2.13,27.51-1.03,40.59-1.04l69.54,.04c66.99,.06,134.52-1.92,201.46,.05,11.39,.34,20.09,1.8,28.22,10.78,15.91,17.58,9.09,63.2,9.4,86.54l-.13,23.22c13.95-.19,28.38-1.08,42.24,.42-14.09,.35-28.19,.47-42.28,.35,.02,23.69,1.1,48.07-.74,71.65-1.81,4.79-3.93,9.38-6.65,13.73-4.9,7.85-13.67,15.56-22.95,17.38-15.44,3.04-34.3,1.27-50.1,1.27l-96.18-.04-108.11,.12c-18.27,.02-37.63,1.31-55.78-.44-6.66-.64-12.56-3.14-17.99-6.95-31.93-22.38-14.48-62.77-20.55-94.37-.05-.28-.12-.57-.18-.85l-.16-1.64c2.63-6.84,1.22-16.55,.94-23.86Z"/>
  <path class="cls-29" d="M1331.19,488.91c3.05-.05,6.29-.14,9.31,.35,5.06,.82,10.13,4.16,13.11,8.29,3.05,4.25,3.92,9.39,2.71,14.45-1.83,7.62-7,11.22-13.26,15-2.96,.31-6.29,.49-9.24,.06-5.09-.74-10.16-4.1-13.02-8.34-.35-.52-.67-1.06-.96-1.62-.29-.56-.55-1.13-.79-1.71-.23-.58-.44-1.18-.61-1.78-.17-.6-.31-1.21-.42-1.83-.11-.62-.19-1.24-.23-1.87-.05-.63-.06-1.25-.04-1.88,.02-.63,.07-1.25,.16-1.87,.09-.62,.2-1.24,.35-1.85,1.83-7.74,6.47-11.56,12.92-15.42Z"/>
  <path class="cls-29" d="M1403.43,488.91c2.94,0,6.05-.06,8.95,.5,5.07,.98,10.01,4.86,12.56,9.28,.31,.55,.59,1.11,.84,1.68,.25,.57,.47,1.16,.67,1.76,.19,.6,.36,1.2,.49,1.81,.13,.61,.23,1.23,.3,1.85,.07,.62,.1,1.25,.11,1.88,0,.63-.02,1.25-.08,1.88-.06,.62-.15,1.24-.27,1.86-.12,.61-.27,1.22-.46,1.82-2.26,7.58-7.46,11.11-14.01,14.6-3.02,.1-6.43,.04-9.37-.68-5.01-1.23-9.93-5.11-12.51-9.54-.33-.56-.62-1.14-.88-1.73-.27-.59-.5-1.2-.7-1.82-.2-.62-.37-1.24-.5-1.88-.13-.64-.24-1.28-.3-1.92-.07-.65-.1-1.29-.1-1.94,0-.65,.03-1.3,.1-1.94,.07-.65,.17-1.29,.31-1.92,.14-.63,.31-1.26,.51-1.88,2.38-7.48,7.73-10.59,14.35-13.67Z"/>
  <path class="cls-29" d="M1472.44,488.93c3.78-.29,8.09-.79,11.84-.18,5.05,.83,9.99,4.34,12.74,8.6,2.59,3.99,3.2,8.71,2.19,13.32-1.71,7.79-6.67,11.91-12.9,16.13-2.89,.59-6.28,.87-9.21,.56-5.01-.53-10.22-3.55-13.21-7.59-3.15-4.24-4.09-9.72-3.27-14.87,1.23-7.73,5.81-11.73,11.82-15.96Z"/>
  <path class="cls-4" d="M1600.18,496.87c27.76-.24,63.21-5.54,84.84,15.91,7.47,7.41,12.13,16.8,14.59,26.95,1.92,30.09,.66,60.87,.67,91.03l.02,167.77c0,24.61-1.58,50.45,.17,74.94-1.36,46.88-.36,93.99-.34,140.91l.14,264.37-.17,99.81c.02,17.69,1.59,36.82-.52,54.36-1.55,12.93-6.02,26.12-15.65,35.28-.96,.9-1.94,1.76-2.96,2.59-1.02,.83-2.06,1.62-3.13,2.38-1.07,.76-2.17,1.47-3.29,2.15-1.12,.68-2.26,1.32-3.43,1.92-1.16,.6-2.35,1.16-3.55,1.68-1.21,.52-2.43,.99-3.66,1.42-1.24,.43-2.49,.82-3.75,1.16-1.26,.35-2.54,.65-3.82,.9-21.81,4.34-51.01,1.51-73.71,1.49l-134.83-.02c-8.24-.08-34.25-2.3-40.83,.92-44.44,.85-89.42-.82-133.95-.86l-336.9-.25-174.7,.07c-28.38,0-59.4,2.37-87.48-.84-10.2-1.17-21.83-7.56-29.37-14.49-8.84-8.13-16.21-19.36-17.85-31.44-3.31-24.21-.86-51.63-.87-76.22l.23-158.19v-407.38s.15-128.09,.15-128.09c.09-26.25,.94-52.75-.2-78.98l-.08-25.2c0-19.29,2.31-38.02,16.79-52.17,9.57-9.35,19.07-11.34,32.1-12.7,19.87-2.07,40.92-.67,60.95-.61l115.58,.28,370.22-.86c.28,7.31,1.69,17.03-.94,23.86h-375.08s-115.2-.12-115.2-.12c-18.45-.01-39.17-1.89-57.33,.7-5.27,.75-11.19,4.5-14.82,8.28-5.53,5.75-7.69,13.44-8.18,21.22-.94,14.87,.04,30.28,.03,45.22l-.1,98.28-.54,290.3v289.06s-.27,99.77-.27,99.77c-.05,17.79-.76,35.94,.13,53.7,.52,10.43,5.33,18.62,13,25.48,6.05,5.41,12.29,7.42,20.22,7.93,17.58,1.15,35.72,.23,53.36,.24l106.7,.02,325.21-.02,316.61-.27,105.23,.05c18.53,0,37.47,.87,55.93-.39,8.52-.58,17.37-3.96,22.93-10.73,5.01-6.11,6.12-20.18,6.35-27.85,1.99-66.17,.24-132.97,.31-199.2l.2-400.11,.11-189.38c.01-22.71,2.47-63.61-.68-83.68-1.44-9.17-5.76-17.16-13.47-22.55-5.77-4.04-12-5.67-18.94-6.17-13.87-1.5-28.3-.61-42.24-.42l.13-23.22Z"/>
  <path class="cls-20" d="M624.93,633.12c.16-14.99,.1-30.02,1.07-44.99,1.14,26.22,.3,52.72,.2,78.98l-.14,128.09v407.38s-.24,158.19-.24,158.19c0,24.59-2.44,52.01,.87,76.22,1.65,12.08,9.02,23.31,17.85,31.44,7.54,6.93,19.17,13.32,29.37,14.49,28.08,3.21,59.1,.84,87.48,.84l174.7-.07,336.9,.25c44.53,.04,89.51,1.71,133.95,.86-24.48,25.47-52.77,47.28-82,67-14.5,9.78-57.66,30.4-65.96,40.77l-606.9-.22-185.04-.12c-32.87,.02-67.07,1.87-99.77-.74,25.54-6.5,47.57-18.98,64.97-38.99,22.24-25.58,33.79-58.08,31.21-92-2.65-34.86-17.4-61.56-43.54-84.12,.54-.37,1.08-.76,1.62-1.12,1.96-1.32,4.01-2.53,5.78-4.12,3.78-3.39,7.57-8.9,7.8-14.15,.16-3.63-1.58-6.99-4.04-9.55-8.84-9.22-20.11-8.27-31.68-8.14,1.92-26.93,.16-55.19-.06-82.24,14.76-.66,27.73-3.52,41.6-8.58,23.67-.62,64.11-37.9,80.84-54.12l103.25,3.81-.27-427.92c1.35-45.55,.07-91.53,.16-137.13Z"/>
</svg>